<ttFont>
          <CharString index="0">
            rmoveto
            366 -70 callgsubr
            -233 97.02000427246094 -243 hhcurveto
            -363 -209 -249 -332 5 callgsubr
            200 -220.97000122070312 367.99000549316406 204 171 61.99000549316406 60.99000549316406 75 hvcurveto
            -57 197 rlineto
            -30 -55 -141 -28 -110 hhcurveto
            -165.99000549316406 -102.00999450683594 67.00999450683594 169.97999572753906 -17 hvcurveto
            669 hlineto
            7 49 5 78.00999450683594 75 callgsubr
            -343 -24.990005493164062 rmoveto
            -335 56 callgsubr
            66.99000549316406 60 105 hhcurveto
            113 40 -83 -165.99000549316406 -9.009994506835938 hvcurveto
            endchar
          </CharString>
          <CharString index="1">
            rmoveto
            -327 -4.0200042724609375 151 -281.97999572753906 422.00999450683594 hhcurveto
            342 242 196.97000122070312 366 5 hvcurveto
            327 5 -151 4 callgsubr
            -422.00999450683594 hhcurveto
            -342 -241.99000549316406 -197 -366 -6 hvcurveto
            773 -29 rmoveto
            -218 -50 -107 -145.99000549316406 -144.02000427246094 -47.99000549316406 155 187.99000549316406 207 -11 callsubr
            110 149 144 46 -151 -184 vhcurveto
            endchar
          </CharString>
          <CharString index="2">
            -23 -77 callsubr
            -66.99000549316406 -29.990005493164062 -69 hhcurveto
            -102.00999450683594 -48.99000549316406 39 171.99000549316406 hvcurveto
            679.0200042724609 -371 -670 vlineto
            -281.00999450683594 52 -204.97999572753906 333.99000549316406 106 145 -53 callgsubr
            61.99000549316406 81 vhcurveto
            -48 vlineto
            -48.97999572753906 22 -8.990005493164062 47 vhcurveto
            268 1155.990005493164 return
          </CharString>
          <CharString index="3">
            -55 callgsubr
            hintmask 1110101010000000
            -89 callsubr
            hintmask 1110110010000000
            -106 callgsubr
            hintmask 1111001100000000
            -70 callsubr
            hintmask 1111001010000000
            134 callsubr
            vlineto
            hintmask 1110101100000000
            -95 callgsubr
            hintmask 1110110010000000
            -91 callsubr
            hintmask 1110101100000000
            -21 callgsubr
            hlineto
            endchar
          </CharString>
          <CharString index="4">
            -82 callsubr
            -61 callgsubr
            hvcurveto
            10 318 rlineto
            22.020004272460938 -115 -99 -29 callgsubr
            -223 hhcurveto
            -440 -348 -222 -563 -485 291 -283.9700012207031 454 345 98 -6 callsubr
            5 -62 callgsubr
            hvcurveto
            768 return
          </CharString>
          <CharString index="5">
            358.02000427246094 197 177.99000549316406 273 239 -156 116 -262 117.99000549316406 hvcurveto
            -184 84 -57 callsubr
            50 92.02000427246094 vvcurveto
            76.99000549316406 66 51.02000427246094 144 133 143 -49 -48 60.99000549316406 vhcurveto
            59 286 rlineto
            32 -55 -145.99000549316406 64 callgsubr
            -228 hhcurveto
            -322.00999450683594 -221 -140 -277 -245 163 -135 194 -92 hvcurveto
            -84 callsubr
            return
          </CharString>
          <CharString index="6">
            291 190.02000427246094 125.99000549316406 237 177 -104 98 -211 68 hvcurveto
            -179 56 -55 30 60 vvcurveto
            52 1 46 26.009994506835938 128 hhcurveto
            110 123 -51.02000427246094 -35.99000549316406 42 hvcurveto
            33 260 rlineto
            29 -52 -129 41 -186 hhcurveto
            -261 -212.99000549316406 -111 -221 hvcurveto
            -1 -175 85 -116 210 -69 rrcurveto
            155 -51 92.02000427246094 -37 -62 vvcurveto
            -58 -48 -77 callsubr
            -117 1 vhcurveto
            return
          </CharString>
          <CharString index="7">
            -209 -52 -130.99000549316406 -15.020004272460938 65 callsubr
            hhcurveto
            -34 -67.99000549316406 14.009994506835938 7 -22 hvcurveto
            -284 vlineto
            -8.009994506835938 12 127 -12 30 hhcurveto
            59.99000549316406 87 12 20.009994506835938 50 hvcurveto
            145 53.99000549316406 135 3 callgsubr
            -36 callgsubr
            273 359.02000427246094 1166.990005493164 rcurveline
            return
          </CharString>
          <CharString index="8">
            rmoveto
            -76 callgsubr
            1022 290.97999572753906 -645 348.02000427246094 450.99000549316406 276.99000549316406 -450.99000549316406 322.00999450683594 584.9900054931641 284 -961.9900054931641 vlineto
            endchar
          </CharString>
          <CharString index="9">
            -398.99000549316406 -180 -264 -333 -328.99000549316406 175 -245.97999572753906 377 147 147.99000549316406 50.970001220703125 65 63 hvcurveto
            -44.99000549316406 209 rlineto
            -23 -48.99000549316406 -87 -18 -97.02000427246094 hhcurveto
            -144 -117 82 235 4 hvcurveto
            215 4.0099945068359375 132 68 118 hhcurveto
            110 69 -22 -25 44 hvcurveto
            42 278.02000427246094 rlineto
            return
          </CharString>
          <CharString index="10">
            -15.990005493164062 return
          </CharString>
          <CharString index="11">
            1146 -26 callgsubr
            169 callsubr
            -2 callgsubr
            381.00999450683594 -74 callsubr
            508.99998474121094 -74 callsubr
            hintmask 11010111
            -94 callsubr
            880.9900054931641 hmoveto
            -101 callgsubr
            hintmask 11101011
            -1670 573.0099945068359 -93 callgsubr
            hintmask 11010111
            36 -330 -76 callsubr
          </CharString>
          <CharString index="12">
            55 -515.9900054931641 199.99000549316406 326.99000549316406 262.97999572753906 149.02000427246094 193.99000549316406 267.99998474121094 255.00999450683594 -175.99998474121094 190.99000549316406 return
          </CharString>
          <CharString index="13">
            911.9900054931641 -17 callsubr
            246.99000549316406 243.02000427246094 138 callgsubr
            125 callsubr
            49.99000549316406 43 callgsubr
            25.009994506835938 30 callsubr
            -45 callsubr
            17 -116 hhcurveto
            -209 -233 -99 -328 hvcurveto
            -116.99000549316406 vlineto
            -143 -27.009994506835938 rlineto
            -216 143 vlineto
            return
          </CharString>
          <CharString index="14">
            rmoveto
            235 1 91 116 130 hhcurveto
            67.00999450683594 58 -9.009994506835938 -22 30.990005493164062 hvcurveto
            -554.9900054931641 vlineto
            -28.020004272460938 -40 -76 -24.990005493164062 -71 hhcurveto
            -117.99000549316406 -74.02000427246094 75 213 1 hvcurveto
            endchar
          </CharString>
          <CharString index="15">
            100 callsubr
            -122 rlineto
            14.990005493164062 -44 -64 13 -81 hhcurveto
            -349 -232 -239 -386.00999450683594 83 callsubr
            209 -176.97999572753906 243 191 103.02000427246094 82.97999572753906 52 51 hvcurveto
            -81 vlineto
            -34 18 -19.979995727539062 36.99000549316406 vhcurveto
            284.02000427246094 return
          </CharString>
          <CharString index="16">
            187 30 -70 -88 -122 -111 -47 -150 -192 -42 110 102.00999450683594 49.99000549316406 16 38.02000427246094 20.009994506835938 26.990005493164062 hvcurveto
            return
          </CharString>
          <CharString index="17">
            rmoveto
            108.00999450683594 299 -135 28 -103 -286.97999572753906 rlineto
            hintmask 11011000
            -54 11 -58 5 -60.99000549316406 -2 -82 callgsubr
            -7 -350 84 callgsubr
            -258.99000549316406 245 -113 -92 -255.97999572753906 rcurveline
            134 -25 86 8 callsubr
            62.02000427246094 -31 callsubr
            66.99000549316406 -6 193 callsubr
            1 rlinecurve
            416.99000549316406 -13 callgsubr
            286 230.99000549316406 10 540 rrcurveto
            hintmask 10111000
            7 356 -140 259.00999450683594 -247 105.99000549316406 rrcurveto
            hintmask 11011000
            -644 -726 rmoveto
            373 150 121 184.02000427246094 28 -5 callsubr
            -4 -7 24 vhcurveto
            -313 -868.9900054931641 rlineto
            -66 87.99000549316406 -33 137 161 vvcurveto
            317.99000549316406 -495 rmoveto
            -38.99000549316406 -36 7 13 218 callsubr
            hvcurveto
            316.99000549316406 880.9900054931641 rlineto
            70 66 callsubr
            34.02000427246094 -136 -170 vvcurveto
            -74 callgsubr
            vhcurveto
            endchar
          </CharString>
          <CharString index="18">
            57.02000427246094 -36 callsubr
            -130.99000549316406 27 -165 hhcurveto
            -336 -1 -190 -121 -248 vvcurveto
            -146 -65 callgsubr
            -13 callsubr
            145 -59 vhcurveto
            return
          </CharString>
          <CharString index="19">
            488 -2 283.02000427246094 297.97999572753906 519 vvcurveto
            468.00999450683594 -232 270.99000549316406 -515.0099945068359 vhcurveto
            return
          </CharString>
          <CharString index="20">
            255 -48 callsubr
            43 631.9700012207031 238.00999450683594 350 -65 callsubr
            hintmask 10110110
            729.9900054931641 267 callsubr
            hintmask 01101110
            -22 callgsubr
            -198 -16 -76 hhcurveto
            -140 -609 -113 -238.02000427246094 113 -674.9799957275391 134 hlineto
            -55 callsubr
            hintmask 10110110
            -88 callsubr
            -1273 vmoveto
            -67.99000549316406 -68.02000427246094 3.9900054931640625 11 -37.99000549316406 hvcurveto
            395 293.99000549316406 238.02000427246094 -293.99000549316406 337 vlineto
            6 36 71 6.9900054931640625 51 hhcurveto
            249 118 -130.99000549316406 -367 -345 -138.02000427246094 -153.99000549316406 -213 -1 hvcurveto
            endchar
          </CharString>
          <CharString index="21">
            43 240.99000549316406 265.99000549316406 673.9999847412109 307.99000549316406 -47 callgsubr
            return
          </CharString>
          <CharString index="22">
            1 callgsubr
            hintmask 10101011
            -88 callsubr
            hintmask 01100111
            -22 callgsubr
            -198 -16 -76 hhcurveto
            -140 hlineto
            hintmask 10101011
            557 -1257 -97 callgsubr
            hintmask 01011011
            883 -182 rmoveto
            42 -82.97999572753906 rlineto
            945.0099945068359 271 callgsubr
            66 92 220 callsubr
            hintmask 01101011
            -35 95 rlineto
            -903 hlineto
            -51 callgsubr
            -252 rlineto
            449.99000549316406 hlineto
            -59.99000549316406 -91 rlineto
            hintmask 01011011
            -458.02000427246094 -714.0200042724609 rlineto
            endchar
          </CharString>
          <CharString index="23">
            227 -108 82 -38 -96.99000549316406 vvcurveto
            -36 callsubr
            -62.02000427246094 -39 -143.99000549316406 vhcurveto
            -160.02000427246094 -1 -168 56 -74 42 return
          </CharString>
          <CharString index="24">
            1 callgsubr
            hintmask 10010110
            -88 callsubr
            hintmask 01100110
            -22 callgsubr
            -198 -16 -76 hhcurveto
            -140 hlineto
            1424 -1438 rmoveto
            42 66 callsubr
            rlineto
            1128 284 -649.0099945068359 hlineto
            74.00999450683594 105 rlineto
            hintmask 01001110
            612.9900054931641 1052 rlineto
            hintmask 01100110
            -41 81 rlineto
            -1094.990005493164 -35 callsubr
            hintmask 10010110
            -867 181 5 callsubr
          </CharString>
          <CharString index="25">
            217 -16 rlineto
            -266 vlineto
            -20.009994506835938 -49 -64.97999572753906 -12 -106 hhcurveto
            -228 -122 217 295 return
          </CharString>
          <CharString index="26">
            -63 110 rlineto
            -816 1140.979995727539 rmoveto
            13 47 59 5 183 callgsubr
            hhcurveto
            199.99000549316406 48 63 callgsubr
            51 callsubr
            -140 -68 51 callgsubr
            -155.02000427246094 hvcurveto
            -49.99000549316406 -1 -97 3 -40.02000427246094 5 rrcurveto
            448.97999572753906 vlineto
            return
          </CharString>
          <CharString index="27">
            hhcurveto
            366 238 246.99000549316406 385.99000549316406 57 callgsubr
            -209 174 138 callsubr
            hvcurveto
            65 -566 rmoveto
            -232 -1 -32 callsubr
            -130 -127 hhcurveto
            -80.02000427246094 -54.99000549316406 197 callsubr
            23.990005493164062 -21.009994506835938 hvcurveto
            559 vlineto
            27.009994506835938 35 121 callsubr
            33 -63 callgsubr
            hhcurveto
            -60 callgsubr
            80 -65 -226 -1 hvcurveto
            endchar
          </CharString>
          <CharString index="28">
            290.97999572753906 348.010009765625 276.99000549316406 322.00999450683594 -8 callsubr
            return
          </CharString>
          <CharString index="29">
            172.99000549316406 return
          </CharString>
          <CharString index="30">
            -26.009994506835938 return
          </CharString>
          <CharString index="31">
            185 callsubr
            372 1140 -372 vlineto
            endchar
          </CharString>
          <CharString index="32">
            239 -97 callsubr
            -57 callgsubr
            return
          </CharString>
          <CharString index="33">
            371.99000549316406 return
          </CharString>
          <CharString index="34">
            -25.990005493164062 return
          </CharString>
          <CharString index="35">
            202 110 callsubr
            306.00001525878906 280 385.989990234375 298 return
          </CharString>
          <CharString index="36">
            rmoveto
            -76 callgsubr
            384 26 callgsubr
            vlineto
            return
          </CharString>
          <CharString index="37">
            372 163 140 228 34 76 callsubr
            30.990005493164062 -7 29 hvcurveto
            184 hlineto
            return
          </CharString>
          <CharString index="38">
            rmoveto
            -76 callgsubr
            889 7 callgsubr
            -502.00999450683594 1235 -386.99000549316406 vlineto
            return
          </CharString>
          <CharString index="39">
            121 100 64 callsubr
            112 -59 callsubr
            return
          </CharString>
          <CharString index="40">
            139.97999572753906 378.50999450683594 513.4900054931641 376.00999450683594 return
          </CharString>
          <CharString index="41">
            40.96000671386719 118 callgsubr
            return
          </CharString>
          <CharString index="42">
            275 -56.94999694824219 40.96000671386719 203 callgsubr
            return
          </CharString>
          <CharString index="43">
            -559.9900054931641 43 2.010009765625 43 return
          </CharString>
          <CharString index="44">
            -102 callgsubr
            hstemhm
            return
          </CharString>
          <CharString index="45">
            -8 326 139.02000427246094 57 294.9700012207031 rlinecurve
            -25 callsubr
            return
          </CharString>
          <CharString index="46">
            -73 callsubr
            16 callgsubr
            return
          </CharString>
          <CharString index="47">
            165 -45.02000427246094 rlineto
            37.99000549316406 -25 callgsubr
            return
          </CharString>
          <CharString index="48">
            -60 callgsubr
            -83 -27 callgsubr
            return
          </CharString>
          <CharString index="49">
            rmoveto
            -1661.990005493164 371.02000427246094 1661.990005493164 -371.02000427246094 vlineto
            return
          </CharString>
          <CharString index="50">
            -79.00999450683594 return
          </CharString>
          <CharString index="51">
            hstemhm
            66.99000549316406 -74 callsubr
            -334.9800109863281 355 return
          </CharString>
          <CharString index="52">
            117 134 -31 callsubr
            -1 147.99000549316406 hvcurveto
            return
          </CharString>
          <CharString index="53">
            -45 callgsubr
            -64 71 -35 10 vhcurveto
            return
          </CharString>
          <CharString index="54">
            -538.9900054931641 -1530 rlineto
            262.97999572753906 hlineto
            542 1530 rlineto
            -266 hlineto
            1132 -1128.020004272461 rmoveto
            -151.99000549316406 272.02000427246094 -270 hlineto
            -27 -272.02000427246094 rlineto
            287 callgsubr
            hlineto
            43 75.02000427246094 379 610 -240 103 rlineto
            -69 hlineto
            -473 -909 53 -94 rlineto
            571 hlineto
            -1 -264.97999572753906 rlineto
            300.00999450683594 264.97999572753906 151.99000549316406 215 hlineto
            endchar
          </CharString>
          <CharString index="55">
            121 -40 callsubr
            return
          </CharString>
          <CharString index="56">
            -119.99000549316406 return
          </CharString>
          <CharString index="57">
            -192.99000549316406 178 116 -285 305.99000549316406 rlineto
            return
          </CharString>
          <CharString index="58">
            88.99000549316406 110 110 return
          </CharString>
          <CharString index="59">
            -97 callsubr
            280.97999572753906 -264.989990234375 return
          </CharString>
          <CharString index="60">
            -473.99000549316406 -529.0200042724609 rmoveto
            207 62 110 149 15 14 -2 -70 callgsubr
            12.990005493164062 vhcurveto
            -200.99000549316406 -560 rlineto
            -36 63 -16 88 97 vvcurveto
            205 -343 rmoveto
            -16.020004272460938 -31 callsubr
            2 3 123 callsubr
            hvcurveto
            204 562 rlineto
            34 -61 16.020004272460938 -86 -32 callsubr
            vvcurveto
            -218 -63.02000427246094 -107 -145.99000549316406 vhcurveto
            endchar
          </CharString>
          <CharString index="61">
            2.9900054931640625 return
          </CharString>
          <CharString index="62">
            -77.99000549316406 return
          </CharString>
          <CharString index="63">
            91 callgsubr
            31 96.97000122070312 83 callgsubr
            69.02000427246094 hhcurveto
            -10 callgsubr
            return
          </CharString>
          <CharString index="64">
            0 43 853.9799957275391 243.00999450683594 return
          </CharString>
          <CharString index="65">
            87 -48 callgsubr
            return
          </CharString>
          <CharString index="66">
            692 -10 43 -42.99000549316406 318.97999572753906 -318.97999572753906 338.97999572753906 1152.0400085449219 -102 callgsubr
            return
          </CharString>
          <CharString index="67">
            -42 callsubr
            -121 return
          </CharString>
          <CharString index="68">
            31 callgsubr
            -38 callgsubr
            return
          </CharString>
          <CharString index="69">
            119.00999450683594 return
          </CharString>
          <CharString index="70">
            270.99000549316406 hstem
            559.9799957275391 278.99000549316406 vstem
            559.9799957275391 439.99000549316406 rmoveto
            -193 279 193 vlineto
            -6 205 157 -5 rlineto
            222 270.99000549316406 -222 hlineto
            -157 -5 6 203 rlineto
            200 -279 -200 vlineto
            6 -203 170 callgsubr
            5 rlineto
            -218 -270.99000549316406 218 hlineto
            184 callsubr
            5 -6 -205 rlineto
            return
          </CharString>
          <CharString index="71">
            -90.00999450683594 return
          </CharString>
          <CharString index="72">
            -278 619.9900054931641 hlineto
            -66.99000549316406 -98 -625.0099945068359 -1062.009994506836 rlineto
            return
          </CharString>
          <CharString index="73">
            144.99000549316406 -59 callgsubr
            312.99998474121094 -59 callgsubr
            return
          </CharString>
          <CharString index="74">
            -203 -215 -75 -49.99000549316406 -83 return
          </CharString>
          <CharString index="75">
            -94.99000549316406 return
          </CharString>
          <CharString index="76">
            -14.990005493164062 return
          </CharString>
          <CharString index="77">
            rmoveto
            -1227.979995727539 384 1227.979995727539 406 135 callsubr
            -1197 166 callgsubr
            vlineto
            return
          </CharString>
          <CharString index="78">
            -113.99000549316406 return
          </CharString>
          <CharString index="79">
            hstem
            -67 callgsubr
            373 334.989990234375 137 callgsubr
            vstem
            return
          </CharString>
          <CharString index="80">
            1582 rmoveto
            116 89 -49 callsubr
            244 callsubr
            9 callsubr
            -29 callsubr
            248 callsubr
            541 hmoveto
            39 callsubr
            -109 77 -75 -7 callgsubr
            hvcurveto
            return
          </CharString>
          <CharString index="81">
            74 0 -15 callsubr
            return
          </CharString>
          <CharString index="82">
            29 144.02000427246094 -10 175.99000549316406 199 vvcurveto
            909 -384 -914 vlineto
            -258.99000549316406 -1 -131 return
          </CharString>
          <CharString index="83">
            266.00999450683594 -132.00999450683594 263 -201.9499969482422 -63 callsubr
            return
          </CharString>
          <CharString index="84">
            42.99000549316406 return
          </CharString>
          <CharString index="85">
            -126.02000427246094 return
          </CharString>
          <CharString index="86">
            rrcurveto
            -99 -1 -51 -51 -65 hhcurveto
            -31 -73 callsubr
            3 11 -17 hvcurveto
            244 callgsubr
            27 80 callsubr
            return
          </CharString>
          <CharString index="87">
            -78.99000549316406 return
          </CharString>
          <CharString index="88">
            -841.0099945068359 -456.00999450683594 rmoveto
            -75 -71 45 104 88 50 26.009994506835938 -23 callsubr
            18 hvcurveto
            41 19.009994506835938 69.02000427246094 14.990005493164062 81.99000549316406 1 100 callsubr
            -85.00999450683594 16 142 callsubr
            26 2 callsubr
            rrcurveto
            -51 -38 -77 -36 -70 hhcurveto
            endchar
          </CharString>
          <CharString index="89">
            -258 110 callsubr
            599.9900054931641 288.00999450683594 return
          </CharString>
          <CharString index="90">
            896.9799957275391 30 callgsubr
            return
          </CharString>
          <CharString index="91">
            792.9900054931641 vlineto
            55 55 81 18 46 0.9799957275390625 rrcurveto
            100 2 47 -42.99000549316406 -174.02000427246094 vvcurveto
            -651.9799957275391 371 715 vlineto
            return
          </CharString>
          <CharString index="92">
            -39 callsubr
            -22.970016479492188 -102 callgsubr
            return
          </CharString>
          <CharString index="93">
            299.99000549316406 return
          </CharString>
          <CharString index="94">
            -107.00999450683594 return
          </CharString>
          <CharString index="95">
            291 -175 115 82 callgsubr
            -167 -223 167 return
          </CharString>
          <CharString index="96">
            48.99000549316406 return
          </CharString>
          <CharString index="97">
            76 callsubr
            233.97999572753906 358.99000549316406 233 -113.989990234375 230.99000549316406 360.99998474121094 231.99000549316406 hstemhm
            98.97000122070312 283.00999450683594 312 -8 callsubr
            331.02000427246094 137 callsubr
            310.99998474121094 284.99000549316406 return
          </CharString>
          <CharString index="98">
            268 callsubr
            4 callsubr
            return
          </CharString>
          <CharString index="99">
            283.99000549316406 return
          </CharString>
          <CharString index="100">
            158.99000549316406 return
          </CharString>
          <CharString index="101">
            96.99000549316406 return
          </CharString>
          <CharString index="102">
            25.990005493164062 return
          </CharString>
          <CharString index="103">
            -40 callgsubr
            rlineto
            hintmask 10110000
            220 callsubr
            hintmask 11010000
            -35 95 rlineto
            -902.9900054931641 hlineto
            -2 -252 rlineto
            450 hlineto
            -60 -91 -458 -714.0200042724609 rlineto
            endchar
          </CharString>
          <CharString index="104">
            -515.9900054931641 216.99000549316406 -216.97999572753906 43 return
          </CharString>
          <CharString index="105">
            -89.99000549316406 -45 callsubr
            -112 return
          </CharString>
          <CharString index="106">
            114 callsubr
            -38 callsubr
            return
          </CharString>
          <CharString index="107">
            57 callgsubr
            -210.97999572753906 174 -244.02000427246094 vhcurveto
            65 -566 rmoveto
            -231 -1 -91 -125.00999450683594 -130 hhcurveto
            -69 -58 12 29 -30 hvcurveto
            546 vlineto
            31 39.02000427246094 76.99000549316406 29 72 hhcurveto
            118 74 194 callsubr
            -218 -1 hvcurveto
            endchar
          </CharString>
          <CharString index="108">
            136 callsubr
            -9 callgsubr
            return
          </CharString>
          <CharString index="109">
            -67.00999450683594 return
          </CharString>
          <CharString index="110">
            -88.99000549316406 return
          </CharString>
          <CharString index="111">
            370.00999450683594 return
          </CharString>
          <CharString index="112">
            -97 callgsubr
            endchar
          </CharString>
          <CharString index="113">
            697 vlineto
            47.99000549316406 43 79 61 137 hhcurveto
            67.99000549316406 35 -16 -11 19 hvcurveto
            return
          </CharString>
          <CharString index="114">
            -45.02000427246094 return
          </CharString>
          <CharString index="115">
            237.99000549316406 return
          </CharString>
          <CharString index="116">
            73.02000427246094 -117 return
          </CharString>
          <CharString index="117">
            -228 -32 callsubr
            rlineto
            -50 vlineto
            return
          </CharString>
          <CharString index="118">
            1557 -48 callsubr
            -8 callsubr
            960 277.99000549316406 -259.00001525878906 275 -96.989990234375 81 203 callgsubr
            hintmask 01100110
            return
          </CharString>
          <CharString index="119">
            1635.979995727539 41 callsubr
            return
          </CharString>
          <CharString index="120">
            165 7 callsubr
            rlineto
            -29 callgsubr
            152 callsubr
            return
          </CharString>
          <CharString index="121">
            86 132 callsubr
            -55.99000549316406 -11 callsubr
            vhcurveto
            -254.02000427246094 3 callsubr
            -11 2 callsubr
            rlineto
            37 13 callgsubr
            return
          </CharString>
          <CharString index="122">
            71 callgsubr
            rlineto
            return
          </CharString>
          <CharString index="123">
            hstemhm
            -8 callgsubr
            return
          </CharString>
          <CharString index="124">
            -15 callgsubr
            -39 -63 return
          </CharString>
          <CharString index="125">
            -85 callgsubr
            hstem
            108 callgsubr
            return
          </CharString>
          <CharString index="126">
            -77 -97 callsubr
            292.97999572753906 985.0000152587891 183 callsubr
            return
          </CharString>
          <CharString index="127">
            -151 -152 112 callgsubr
            28 -34 hvcurveto
            return
          </CharString>
          <CharString index="128">
            93.97999572753906 111 112 return
          </CharString>
          <CharString index="129">
            1962.990005493164 rmoveto
            47 callsubr
            248 137 61 callsubr
            -137 189 callsubr
            return
          </CharString>
          <CharString index="130">
            -120.00999450683594 1 -65 callgsubr
            -91 141 callgsubr
            120 -45 callsubr
            92 callgsubr
            -22 callsubr
            vhcurveto
            return
          </CharString>
          <CharString index="131">
            266.99000549316406 -132.99000549316406 263.97999572753906 hstemhm
            return
          </CharString>
          <CharString index="132">
            145 118 77 170.99000549316406 66 callgsubr
            hvcurveto
            return
          </CharString>
          <CharString index="133">
            116 89 -49 callsubr
            -71 9 callsubr
            return
          </CharString>
          <CharString index="134">
            -62 callgsubr
            52 callgsubr
            300.00999450683594 380.97999572753906 return
          </CharString>
          <CharString index="135">
            241 145 170 232 -2 hvcurveto
            82 callgsubr
            hlineto
            -47.99000549316406 -8 -13.990005493164062 -111 -138.02000427246094 hhcurveto
            -22 callgsubr
            -11 111 47.99000549316406 -5 hvcurveto
            -227 hlineto
            return
          </CharString>
          <CharString index="136">
            24 -54 callgsubr
            -8.009994506835938 117 callgsubr
            return
          </CharString>
          <CharString index="137">
            -32 callgsubr
            -77 callsubr
            return
          </CharString>
          <CharString index="138">
            84.00999450683594 -284 rlineto
            return
          </CharString>
          <CharString index="139">
            1395 rmoveto
            173 252 callgsubr
            134 callsubr
            203 callsubr
            rlinecurve
            138 callsubr
            189 -32 callsubr
            -68 callgsubr
            return
          </CharString>
          <CharString index="140">
            79.00999450683594 rlinecurve
            -262 -130 return
          </CharString>
          <CharString index="141">
            -1 rmoveto
            -145 -54.99000549316406 -88 -102.00999450683594 -98 -55.99000549316406 -6 callsubr
            148 145 55.99000549316406 88 102.02000427246094 98 64 callgsubr
            -98 -147 vhcurveto
            return
          </CharString>
          <CharString index="142">
            120 callsubr
            83 callgsubr
            -73 callsubr
            vhcurveto
            return
          </CharString>
          <CharString index="143">
            60 callsubr
            -27 33 callsubr
            return
          </CharString>
          <CharString index="144">
            78 callgsubr
            278 callgsubr
            238 callsubr
            -94 return
          </CharString>
          <CharString index="145">
            39 -660.0099945068359 rmoveto
            -62.02000427246094 -98 6 17 -73 callsubr
            hvcurveto
            394 vlineto
            6 24 99.97999572753906 2 49 hhcurveto
            193 80 -70 -132 -159 -85 -64 -175 hvcurveto
            endchar
          </CharString>
          <CharString index="146">
            26 callsubr
            -115 226 callgsubr
            return
          </CharString>
          <CharString index="147">
            1857.990005493164 rmoveto
            186 callgsubr
            -26.009994506835938 16 callgsubr
            rlinecurve
            195 callgsubr
            -132 88.99000549316406 28 177 172 83 124 rlinecurve
            return
          </CharString>
          <CharString index="148">
            rmoveto
            -49 callgsubr
            return
          </CharString>
          <CharString index="149">
            -507 8 callsubr
            269.00999450683594 return
          </CharString>
          <CharString index="150">
            -48.99000549316406 -48 vvcurveto
            112 callsubr
            -66.99000549316406 -59 -162.02000427246094 -5 callgsubr
            vhcurveto
            213 callgsubr
            123 callgsubr
            -66 21.009994506835938 -64 16 return
          </CharString>
          <CharString index="151">
            72 callsubr
            97 callsubr
            return
          </CharString>
          <CharString index="152">
            10 callsubr
            hintmask 01110100
            29 callsubr
            hintmask 01111000
            -27 vlineto
            endchar
          </CharString>
          <CharString index="153">
            664 0 290.97999572753906 27.010009765625 260.99000549316406 62.99998474121094 277.00999450683594 319.00001525878906 -8 callsubr
            -188.00001525878906 188 return
          </CharString>
          <CharString index="154">
            -222 -70 callgsubr
            128 -146.99000549316406 261 hhcurveto
            return
          </CharString>
          <CharString index="155">
            -97 callsubr
            276.99000549316406 638.9900054931641 256 return
          </CharString>
          <CharString index="156">
            86 385 387.99000549316406 385 return
          </CharString>
          <CharString index="157">
            259.99000549316406 628 252 return
          </CharString>
          <CharString index="158">
            -114.00999450683594 return
          </CharString>
          <CharString index="159">
            180 callsubr
            hintmask 11011100
            87 callgsubr
            136 callsubr
            -50 callsubr
            return
          </CharString>
          <CharString index="160">
            -84 callsubr
            -47 -296 rcurveline
            return
          </CharString>
          <CharString index="161">
            2 callgsubr
            -239 -227 -240 227 return
          </CharString>
          <CharString index="162">
            27 -36 -124.99000549316406 30 -154 hhcurveto
            return
          </CharString>
          <CharString index="163">
            119.99000549316406 return
          </CharString>
          <CharString index="164">
            -197.02000427246094 121 callgsubr
            11.020004272460938 65 13.990005493164062 57 18 rlinecurve
            -695.9900054931641 333 1008.9900054931641 vlineto
            -174 25 -48 -39 return
          </CharString>
          <CharString index="165">
            43 762.9900054931641 351.97999572753906 -38 callgsubr
            -36.96000671386719 -63 callsubr
            214 callgsubr
            -59 callgsubr
            return
          </CharString>
          <CharString index="166">
            52 625.9900054931641 277.99000549316406 hstem
            253.99000549316406 850 vstem
            253.99000549316406 903.9900054931641 rmoveto
            -278 850 278 -850 vlineto
            endchar
          </CharString>
          <CharString index="167">
            1533.990005493164 rmoveto
            173 132 -40 40 -193 203 return
          </CharString>
          <CharString index="168">
            214 callsubr
            222 -2 237 callsubr
            -19 -92 return
          </CharString>
          <CharString index="169">
            179 callsubr
            97 callsubr
            return
          </CharString>
          <CharString index="170">
            111.99000549316406 return
          </CharString>
          <CharString index="171">
            94.99000549316406 return
          </CharString>
          <CharString index="172">
            -103.02000427246094 return
          </CharString>
          <CharString index="173">
            -83.99000549316406 return
          </CharString>
          <CharString index="174">
            152 43 76 136.99000549316406 161.02000427246094 vvcurveto
            240.99000549316406 -160.99000549316406 151 -424 vhcurveto
            -155 -104 -31 callsubr
            -104 hhcurveto
            return
          </CharString>
          <CharString index="175">
            304.99000549316406 51 callgsubr
            143 -248 -5.0200042724609375 vhcurveto
            endchar
          </CharString>
          <CharString index="176">
            rmoveto
            153 callgsubr
            591.9900054931641 433 283 -433 363.00999450683594 570 284 -949.9900054931641 vlineto
            endchar
          </CharString>
          <CharString index="177">
            75 callsubr
            114 callgsubr
            246 callgsubr
            170 callsubr
            return
          </CharString>
          <CharString index="178">
            -85 callgsubr
            144 43 return
          </CharString>
          <CharString index="179">
            195 callgsubr
            165 callsubr
            return
          </CharString>
          <CharString index="180">
            hlineto
            4 callgsubr
            291 -175 115 return
          </CharString>
          <CharString index="181">
            99 callgsubr
            vstem
            return
          </CharString>
          <CharString index="182">
            hstemhm
            -67 callgsubr
            return
          </CharString>
          <CharString index="183">
            -3.9900054931640625 return
          </CharString>
          <CharString index="184">
            vstem
            -3 callgsubr
            return
          </CharString>
          <CharString index="185">
            289 callsubr
            273 callsubr
            95 63 callsubr
            37 callgsubr
            return
          </CharString>
          <CharString index="186">
            -11 callgsubr
            304.99000549316406 232 callgsubr
            234 callgsubr
            -177 2 callgsubr
            -239 -227 return
          </CharString>
          <CharString index="187">
            103 -12 61 hhcurveto
            25 callsubr
            return
          </CharString>
          <CharString index="188">
            53 -1190.009994506836 rlineto
            314 hlineto
            40 1190.009994506836 rlineto
            -407 hlineto
            return
          </CharString>
          <CharString index="189">
            -7.9900054931640625 return
          </CharString>
          <CharString index="190">
            -369.99000549316406 return
          </CharString>
          <CharString index="191">
            165.99000549316406 return
          </CharString>
          <CharString index="192">
            -175.97999572753906 -1522.990005493164 351.99000549316406 1 60 808.9799957275391 -5 callsubr
            438 100 -449.99000549316406 rlineto
            return
          </CharString>
          <CharString index="193">
            -2 callgsubr
            hintmask 00000000
            return
          </CharString>
          <CharString index="194">
            -31 callgsubr
            hstemhm
            return
          </CharString>
          <CharString index="195">
            162 111 120.02000427246094 116 return
          </CharString>
          <CharString index="196">
            43 255 203 callsubr
            return
          </CharString>
          <CharString index="197">
            -74 callsubr
            hintmask 00000000
            return
          </CharString>
          <CharString index="198">
            rmoveto
            -272.02000427246094 vlineto
            return
          </CharString>
          <CharString index="199">
            149 callsubr
            496 43 hstemhm
            -2 1787 hintmask 10111000
            return
          </CharString>
          <CharString index="200">
            -444 -185.99000549316406 1965.990005493164 hstem
            7 callgsubr
            288.00999450683594 vstem
            7 callgsubr
            1780 rmoveto
            return
          </CharString>
          <CharString index="201">
            43 494.97999572753906 257 474 269 -56.94999694824219 -66 callsubr
            379.97999572753906 return
          </CharString>
          <CharString index="202">
            -7 callgsubr
            -304 57 callgsubr
            rlineto
            return
          </CharString>
          <CharString index="203">
            -112 121 callsubr
            206 callgsubr
            return
          </CharString>
          <CharString index="204">
            -23 callsubr
            255 266 callgsubr
            return
          </CharString>
          <CharString index="205">
            43 -40.99000549316406 43 hstemhm
            return
          </CharString>
          <CharString index="206">
            -111.99000549316406 return
          </CharString>
          <CharString index="207">
            4.0200042724609375 return
          </CharString>
          <CharString index="208">
            -121.02000427246094 return
          </CharString>
          <CharString index="209">
            -13 -6 callgsubr
            -186 hhcurveto
            -164 51 callgsubr
            -116 -116 -31 hvcurveto
            208 callsubr
            return
          </CharString>
          <CharString index="210">
            vstem
            256.97999572753906 1850 rmoveto
            -117.99000549316406 -660 rlineto
            278 hlineto
            186 660 rlineto
            -346.00999450683594 hlineto
            return
          </CharString>
          <CharString index="211">
            24.990005493164062 65 hhcurveto
            115 -0.9799957275390625 48 -33.02000427246094 1 -57 1 -62 181 callsubr
            -46 -81 -25 return
          </CharString>
          <CharString index="212">
            149 callsubr
            hstemhm
            -2 1787 hintmask 10110000
            return
          </CharString>
          <CharString index="213">
            1474.990005493164 rmoveto
            293 callgsubr
            76 callgsubr
            114 -304 4 callsubr
            rlineto
            -222.99000549316406 hlineto
            return
          </CharString>
          <CharString index="214">
            124 220 callgsubr
            211 callsubr
            256.99998474121094 251 hstem
            143 callgsubr
            923.9900054931641 vstem
            return
          </CharString>
          <CharString index="215">
            277 callgsubr
            -92.02000427246094 -65.99000549316406 return
          </CharString>
          <CharString index="216">
            273 callgsubr
            112.99000549316406 hvcurveto
            return
          </CharString>
          <CharString index="217">
            -97 callsubr
            283.97999572753906 return
          </CharString>
          <CharString index="218">
            133 callgsubr
            hvcurveto
            return
          </CharString>
          <CharString index="219">
            -78.00999450683594 return
          </CharString>
          <CharString index="220">
            112.99000549316406 return
          </CharString>
          <CharString index="221">
            -112 87 -80 return
          </CharString>
          <CharString index="222">
            -100.99000549316406 134 -86.02000427246094 return
          </CharString>
          <CharString index="223">
            145 169.99000549316406 232.02000427246094 return
          </CharString>
          <CharString index="224">
            89 callsubr
            rlinecurve
            return
          </CharString>
          <CharString index="225">
            rlineto
            93 71 87 53 102.99000549316406 hhcurveto
            98 54 -47 -94 -194.99000549316406 -356.99000549316406 -233 -154 return
          </CharString>
          <CharString index="226">
            -184 36 callgsubr
            return
          </CharString>
          <CharString index="227">
            -54 callgsubr
            82 callsubr
            -42 return
          </CharString>
          <CharString index="228">
            74.02000427246094 return
          </CharString>
          <CharString index="229">
            89.99000549316406 return
          </CharString>
          <CharString index="230">
            -14.009994506835938 return
          </CharString>
          <CharString index="231">
            222 -805.9900054931641 rlineto
            337 hlineto
            204 805.9900054931641 95 449.99000549316406 23 -438 rlineto
            return
          </CharString>
          <CharString index="232">
            103 vlineto
            133 57 56 87 71 return
          </CharString>
          <CharString index="233">
            80 -62 callgsubr
            176 callsubr
            return
          </CharString>
          <CharString index="234">
            61.99000549316406 101 callsubr
            -51 callsubr
            -36 callsubr
            -45 callsubr
            -112 return
          </CharString>
          <CharString index="235">
            -1 callgsubr
            hintmask 0000000000000000
            return
          </CharString>
          <CharString index="236">
            7 callgsubr
            1194.0500030517578 -102 callgsubr
            return
          </CharString>
          <CharString index="237">
            hstem
            10 callgsubr
            return
          </CharString>
          <CharString index="238">
            hstem
            210 callgsubr
            return
          </CharString>
          <CharString index="239">
            171 209 vvcurveto
            147 -29 93 return
          </CharString>
          <CharString index="240">
            28 76 callgsubr
            return
          </CharString>
          <CharString index="241">
            255.02000427246094 return
          </CharString>
          <CharString index="242">
            294.00999450683594 return
          </CharString>
          <CharString index="243">
            223.99000549316406 return
          </CharString>
          <CharString index="244">
            282.99000549316406 return
          </CharString>
          <CharString index="245">
            -243.02000427246094 return
          </CharString>
          <CharString index="246">
            rmoveto
            366 -2 -231 97.02000427246094 -242 hhcurveto
            -133 -113 -34 -60 -87.99000549316406 hvcurveto
            return
          </CharString>
          <CharString index="247">
            -127.02000427246094 84 callgsubr
            rlineto
            -46 -34 -61.99000549316406 -59.99000549316406 -71 hhcurveto
            return
          </CharString>
          <CharString index="248">
            135 callsubr
            hstem
            434.99000549316406 384 vstem
            return
          </CharString>
          <CharString index="249">
            -76.99000549316406 return
          </CharString>
          <CharString index="250">
            203.97999572753906 return
          </CharString>
          <CharString index="251">
            -98.97999572753906 return
          </CharString>
          <CharString index="252">
            242.99000549316406 return
          </CharString>
          <CharString index="253">
            -370.00999450683594 return
          </CharString>
          <CharString index="254">
            376.99000549316406 return
          </CharString>
          <CharString index="255">
            -143 0 43 548.9900054931641 137 callsubr
            363.00999450683594 -8 callsubr
            return
          </CharString>
          <CharString index="256">
            477 -97 callsubr
            43 -43 130 callgsubr
            return
          </CharString>
          <CharString index="257">
            3.9900054931640625 249.02000427246094 -87 242 callgsubr
            -229 92.02000427246094 rrcurveto
            return
          </CharString>
          <CharString index="258">
            1687 rmoveto
            -232.02000427246094 -70 callgsubr
            134.97999572753906 194 callgsubr
            return
          </CharString>
          <CharString index="259">
            18 94 -23 callgsubr
            return
          </CharString>
          <CharString index="260">
            -388.00999450683594 hlineto
            endchar
          </CharString>
          <CharString index="261">
            164 callgsubr
            hintmask 11101100
            274 callsubr
            31 hvcurveto
            return
          </CharString>
          <CharString index="262">
            88 21 callsubr
            -70 77 -116 51 callsubr
            -92 -93 -111 return
          </CharString>
          <CharString index="263">
            265.99000549316406 -131.99000549316406 263 -201.94000244140625 -63 callsubr
            return
          </CharString>
          <CharString index="264">
            -86.97999572753906 -22 callsubr
            249 callsubr
            return
          </CharString>
          <CharString index="265">
            222 callsubr
            rrcurveto
            29 144.02000427246094 return
          </CharString>
          <CharString index="266">
            163 hstem
            -5 callsubr
            205 317.989990234375 204 vstem
            -5 callsubr
            return
          </CharString>
          <CharString index="267">
            -252.99000549316406 664 417 rlineto
            284 vlineto
            -664 417.02000427246094 rlineto
            endchar
          </CharString>
          <CharString index="268">
            rmoveto
            91 callgsubr
            30.990005493164062 return
          </CharString>
          <CharString index="269">
            1221 rmoveto
            169 157.97999572753906 -104 94 return
          </CharString>
          <CharString index="270">
            -227.99000549316406 -32 callsubr
            rlineto
            -50 vlineto
            return
          </CharString>
          <CharString index="271">
            rmoveto
            -108.00999450683594 -460 return
          </CharString>
          <CharString index="272">
            -158 122 callsubr
            return
          </CharString>
          <CharString index="273">
            -30.990005493164062 return
          </CharString>
          <CharString index="274">
            1771.990005493164 return
          </CharString>
          <CharString index="275">
            -284 -308 rlineto
            return
          </CharString>
          <CharString index="276">
            122.97999572753906 return
          </CharString>
          <CharString index="277">
            347.99000549316406 return
          </CharString>
          <CharString index="278">
            -125.99000549316406 return
          </CharString>
          <CharString index="279">
            367.97999572753906 return
          </CharString>
          <CharString index="280">
            hstem
            -67 callgsubr
            114 callgsubr
            246 callgsubr
            170 callsubr
            vstem
            return
          </CharString>
          <CharString index="281">
            -98 hhcurveto
            hintmask 01011000
            -145 -41 156 -211 hhcurveto
            -182.99000549316406 -140 -161 return
          </CharString>
          <CharString index="282">
            1640.979995727539 rmoveto
            -238 619.0099945068359 238 -619.0099945068359 vlineto
            return
          </CharString>
          <CharString index="283">
            186 callgsubr
            rcurveline
            -61 callsubr
            return
          </CharString>
          <CharString index="284">
            -22 437.97999572753906 -437.9700012207031 43 return
          </CharString>
          <CharString index="285">
            65 callsubr
            88 callgsubr
            vhcurveto
            return
          </CharString>
          <CharString index="286">
            294 callgsubr
            92 callgsubr
            return
          </CharString>
          <CharString index="287">
            1654.990005493164 rmoveto
            return
          </CharString>
          <CharString index="288">
            -56.02000427246094 return
          </CharString>
          <CharString index="289">
            -39.02000427246094 return
          </CharString>
          <CharString index="290">
            275.97999572753906 return
          </CharString>
          <CharString index="291">
            159.99000549316406 return
          </CharString>
          <CharString index="292">
            rmoveto
            -1140 return
          </CharString>
          <CharString index="293">
            103 -12 61 hhcurveto
            145 117.99000549316406 77 170.99000549316406 2 hvcurveto
            1 return
          </CharString>
          <CharString index="294">
            -8 callgsubr
            378.99998474121094 387.00999450683594 return
          </CharString>
          <CharString index="295">
            0 -39 callsubr
            return
          </CharString>
          <CharString index="296">
            180 callgsubr
            -5 hvcurveto
            -224 hlineto
            return
          </CharString>
          <CharString index="297">
            hstemhm
            -62 callgsubr
            52 callgsubr
            return
          </CharString>
          <CharString index="298">
            hstemhm
            51.99000549316406 1007.9799957275391 return
          </CharString>
          <CharString index="299">
            -59 callgsubr
            hintmask 00000000
            return
          </CharString>
          <CharString index="300">
            72.00999450683594 return
          </CharString>
          <CharString index="301">
            -72.99000549316406 return
          </CharString>
          <CharString index="302">
            -84.00999450683594 return
          </CharString>
          <CharString index="303">
            -95.99000549316406 return
          </CharString>
          <CharString index="304">
            10.020004272460938 return
          </CharString>
          <CharString index="305">
            250.97999572753906 return
          </CharString>
          <CharString index="306">
            1280.979995727539 rmoveto
            115 89 94 253 callsubr
            return
          </CharString>
          <CharString index="307">
            234 callsubr
            305.00999450683594 83 callsubr
            rlineto
            return
          </CharString>
          <CharString index="308">
            75 48 callsubr
            return
          </CharString>
          <CharString index="309">
            949.9799957275391 753 hstem
            218.97000122070312 292.52000427246094 return
          </CharString>
          <CharString index="310">
            143 callsubr
            64 151 return
          </CharString>
          <CharString index="311">
            1772.990005493164 rmoveto
            -112 return
          </CharString>
          <CharString index="312">
            -65 -38 callsubr
            return
          </CharString>
          <CharString index="313">
            -93 -111 -111 76 -57 callsubr
            -60 callgsubr
            hvcurveto
            return
          </CharString>
          <CharString index="314">
            185 callgsubr
            -74 callsubr
            return
          </CharString>
          <CharString index="315">
            133 -132 rlineto
            -53 callgsubr
            return
          </CharString>
          <CharString index="316">
            -116 -115 166 callsubr
            hvcurveto
            return
          </CharString>
          <CharString index="317">
            1017 290.97999572753906 -639 vlineto
            return
          </CharString>
          <CharString index="318">
            251.99000549316406 return
          </CharString>
          <CharString index="319">
            -147.99000549316406 return
          </CharString>
          <CharString index="320">
            153.99000549316406 return
          </CharString>
          <CharString index="321">
            146.99000549316406 return
          </CharString>
          <CharString index="322">
            115.02000427246094 return
          </CharString>
          <CharString index="323">
            -69.02000427246094 return
          </CharString>
          <CharString index="324">
            73.00999450683594 return
          </CharString>
          <CharString index="325">
            -31.990005493164062 return
          </CharString>
          <CharString index="326">
            322.99000549316406 return
          </CharString>
          <CharString index="327">
            447 693 rlineto
            return
          </CharString>
          <CharString index="328">
            -255 147 -227 150 101 callsubr
            rrcurveto
            hintmask 11100100
            return
          </CharString>
          <CharString index="329">
            171 -8 326 139.02000427246094 57 294.9700012207031 return
          </CharString>
          <CharString index="330">
            157 -41 rlineto
            63 68 86 132 callsubr
            return
          </CharString>
          <CharString index="331">
            40.96000671386719 16 callsubr
            return
          </CharString>
          <CharString index="332">
            51 -162 218.99000549316406 338 vvcurveto
            329.00999450683594 return
          </CharString>
          <CharString index="333">
            1465 rmoveto
            133 285 callgsubr
            62 56 66 hhcurveto
            return
          </CharString>
          <CharString index="334">
            1765.990005493164 rmoveto
            -109 77 -75 -7 callgsubr
            return
          </CharString>
          <CharString index="335">
            rmoveto
            89 244.99000549316406 -133 255 callsubr
            rlineto
            return
          </CharString>
          <CharString index="336">
            vstem
            1044.990005493164 1838 rmoveto
            -486.00999450683594 return
          </CharString>
          <CharString index="337">
            90 callsubr
            hintmask 11110000
            return
          </CharString>
          <CharString index="338">
            94 254 callsubr
            return
          </CharString>
          <CharString index="339">
            -6 callgsubr
            -198 return
          </CharString>
          <CharString index="340">
            hstemhm
            -13 2023.990005493164 return
          </CharString>
          <CharString index="341">
            -176 -11 callgsubr
            return
          </CharString>
          <CharString index="342">
            211 callgsubr
            rlineto
            return
          </CharString>
          <CharString index="343">
            167 -176 -115 return
          </CharString>
          <CharString index="344">
            hvcurveto
            -220 hlineto
            -47 -7 return
          </CharString>
          <CharString index="345">
            -102.99000549316406 return
          </CharString>
          <CharString index="346">
            104.02000427246094 return
          </CharString>
          <CharString index="347">
            -247.99000549316406 return
          </CharString>
          <CharString index="348">
            229.99000549316406 return
          </CharString>
          <CharString index="349">
            89.00999450683594 return
          </CharString>
          <CharString index="350">
            -53.99000549316406 return
          </CharString>
          <CharString index="351">
            -72.00999450683594 return
          </CharString>
          <CharString index="352">
            663.9799957275391 return
          </CharString>
          <CharString index="353">
            1 -137 106 -221.99000549316406 hhcurveto
            -177 -187 return
          </CharString>
          <CharString index="354">
            173 -131.99000549316406 89 133 callsubr
            return
          </CharString>
          <CharString index="355">
            226 callgsubr
            -109 77 -75 -7 callgsubr
            hvcurveto
            return
          </CharString>
          <CharString index="356">
            vvcurveto
            256 callgsubr
            -25 -100 -31 -41 vhcurveto
            -29 vlineto
            return
          </CharString>
          <CharString index="357">
            0 -20 callgsubr
            hstem
            return
          </CharString>
          <CharString index="358">
            1189.990005493164 660 hstem
            138.99000549316406 return
          </CharString>
          <CharString index="359">
            232 callsubr
            hhcurveto
            return
          </CharString>
          <CharString index="360">
            205 callgsubr
            -117 return
          </CharString>
          <CharString index="361">
            205 callgsubr
            -116 return
          </CharString>
          <CharString index="362">
            28.020004272460938 return
          </CharString>
          <CharString index="363">
            85.00999450683594 return
          </CharString>
          <CharString index="364">
            32.99000549316406 return
          </CharString>
          <CharString index="365">
            50.02000427246094 return
          </CharString>
          <CharString index="366">
            40.02000427246094 return
          </CharString>
          <CharString index="367">
            -43.99000549316406 return
          </CharString>
          <CharString index="368">
            204.97999572753906 return
          </CharString>
          <CharString index="369">
            262 callgsubr
            4 callgsubr
            -291 rlineto
            return
          </CharString>
          <CharString index="370">
            292 callsubr
            115 return
          </CharString>
          <CharString index="371">
            145 callsubr
            hstemhm
            return
          </CharString>
          <CharString index="372">
            -38 callsubr
            hvcurveto
            return
          </CharString>
          <CharString index="373">
            393.99000549316406 hstemhm
            return
          </CharString>
          <CharString index="374">
            1537.990005493164 rmoveto
            return
          </CharString>
          <CharString index="375">
            hstemhm
            -19 callgsubr
            return
          </CharString>
          <CharString index="376">
            64 151 rlinecurve
            return
          </CharString>
          <CharString index="377">
            1558 rmoveto
            172 callgsubr
            291 return
          </CharString>
          <CharString index="378">
            172 callgsubr
            268 callgsubr
            return
          </CharString>
          <CharString index="379">
            hstemhm
            139.97999572753906 378.50999450683594 return
          </CharString>
          <CharString index="380">
            rmoveto
            3 callgsubr
            99.99000549316406 return
          </CharString>
          <CharString index="381">
            160 109 56 callsubr
            116 return
          </CharString>
          <CharString index="382">
            116 18 -133.97999572753906 179 hhcurveto
            return
          </CharString>
          <CharString index="383">
            72.989990234375 367 return
          </CharString>
          <CharString index="384">
            -104 5 -146 rrcurveto
            -131 return
          </CharString>
          <CharString index="385">
            541 hmoveto
            -109 77 -75 return
          </CharString>
          <CharString index="386">
            224 -192.99000549316406 return
          </CharString>
          <CharString index="387">
            -98 -107 -120 vhcurveto
            return
          </CharString>
          <CharString index="388">
            90.99000549316406 return
          </CharString>
          <CharString index="389">
            40.97999572753906 return
          </CharString>
          <CharString index="390">
            148.99000549316406 return
          </CharString>
          <CharString index="391">
            -114.02000427246094 return
          </CharString>
          <CharString index="392">
            228.99000549316406 return
          </CharString>
          <CharString index="393">
            233.99000549316406 return
          </CharString>
          <CharString index="394">
            273.97999572753906 return
          </CharString>
          <CharString index="395">
            27.020004272460938 return
          </CharString>
          <CharString index="396">
            1277.990005493164 return
          </CharString>
          <CharString index="397">
            -29 callsubr
            293 callsubr
            rlineto
            return
          </CharString>
          <CharString index="398">
            217 226 vvcurveto
            116.97999572753906 return
          </CharString>
          <CharString index="399">
            -20 callsubr
            113 callsubr
            return
          </CharString>
          <CharString index="400">
            240 227 return
          </CharString>
        <CharString name=".notdef">
          572 0 218.99000549316406 973.989990234375 223 hstem
          230.99000549316406 285 callsubr
          959.9999847412109 227 vstem
          230.99000549316406 1415.990005493164 rmoveto
          -1415.990005493164 1415.990005493164 1415.990005493164 -1415.990005493164 vlineto
          705 -828.9900054931641 rmoveto
          -347.02000427246094 -368 -128 144 358.02000427246094 342 -359.02000427246094 363.00999450683594 123 196 callgsubr
          357.00999450683594 -367.99000549316406 351.99000549316406 366 128 -124 -362.99000549316406 -357.99000549316406 362.99000549316406 -368 -122 -122 -361.99000549316406 368 rlineto
          endchar
        </CharString>
        <CharString name="A">
          -88 callgsubr
          276 callgsubr
          hintmask 11011000
          1075 hmoveto
          -98 callgsubr
          hintmask 11101000
          -77 callgsubr
          hintmask 11011000
          -377 hlineto
          endchar
        </CharString>
        <CharString name="AE">
          46 callsubr
          hstemhm
          865.9900054931641 257 callgsubr
          hintmask 10110100
          1244 290.97999572753906 34 callgsubr
          hintmask 11110100
          248 callgsubr
          hintmask 10110100
          -317.99000549316406 210 callsubr
          hintmask 11101100
          188 callgsubr
        </CharString>
        <CharString name="AEacute">
          46 callsubr
          144.010009765625 43 hstemhm
          865.9900054931641 257 callgsubr
          hintmask 10110110
          1432.990005493164 1857.990005493164 rmoveto
          186 callgsubr
          -61 callsubr
          rlinecurve
          173 -132 89 21 callgsubr
          -188.99000549316406 -1567.009994506836 34 callgsubr
          hintmask 11110110
          248 callgsubr
          hintmask 10110110
          -317.99000549316406 210 callsubr
          hintmask 11101110
          188 callgsubr
        </CharString>
        <CharString name="Aacute">
          -88 callgsubr
          134.010009765625 43 276 callgsubr
          hintmask 11011100
          1107.990005493164 1857.990005493164 rmoveto
          186 callgsubr
          -61 callsubr
          rlinecurve
          173 -132 89 21 callgsubr
          -32.99000549316406 -1857.990005493164 rmoveto
          -98 callgsubr
          hintmask 11101100
          -77 callgsubr
          hintmask 11011100
          -377 hlineto
          endchar
        </CharString>
        <CharString name="Abreve">
          -88 callgsubr
          62.010009765625 241 callsubr
          276 callgsubr
          hintmask 11011100
          730.9900054931641 1594 rmoveto
          65 callgsubr
          137.02000427246094 61 callsubr
          147 callgsubr
          189 callsubr
          47 callsubr
          344 -1594 rmoveto
          -98 callgsubr
          hintmask 11101100
          -77 callgsubr
          hintmask 11011100
          -377 hlineto
          endchar
        </CharString>
        <CharString name="Acircumflex">
          -80 callgsubr
        </CharString>
        <CharString name="Adieresis">
          -88 callgsubr
          50.010009765625 381.99000549316406 276 callgsubr
          -1213.989990234375 236 callgsubr
          hintmask 00000000
          hintmask 11011011
          455.99000549316406 -27 callsubr
          78.00999450683594 -1582 rmoveto
          171 callgsubr
          hlineto
          hintmask 11010001
          -534 1531.990005493164 rlineto
          -433.99000549316406 hlineto
          -530 -1531.990005493164 rlineto
          398.99000549316406 hlineto
          80 284 rlineto
          531 hlineto
          hintmask 11011011
          31 callsubr
          hintmask 11100100
          -540 549.9900054931641 rmoveto
          -77 callgsubr
          -377 hlineto
          endchar
        </CharString>
        <CharString name="Agrave">
          -88 callgsubr
          134.010009765625 43 276 callgsubr
          hintmask 11011100
          705.9900054931641 36 callsubr
          79.00999450683594 -122 186.99000549316406 179 callgsubr
          369.00999450683594 -1533.990005493164 rmoveto
          -98 callgsubr
          hintmask 11101100
          -77 callgsubr
          hintmask 11011100
          -377 hlineto
          endchar
        </CharString>
        <CharString name="Amacron">
          -88 callgsubr
          142.010009765625 234 hstemhm
          422.99000549316406 618.9799957275391 hintmask 00000000
          hintmask 11011100
          1041.979995727539 1908 rmoveto
          -618.9900054931641 -234 618.9900054931641 234 hlineto
          33.02000427246094 -1908 rmoveto
          -98 callgsubr
          hintmask 11101100
          -77 callgsubr
          hintmask 11011100
          -377 hlineto
          endchar
        </CharString>
        <CharString name="Aogonek">
          154 -3 callsubr
          472.97999572753906 -86 callsubr
          276 callgsubr
          -542.989990234375 304.97999572753906 hintmask 00000000
          hintmask 10110101
          1240.990005493164 -211 rmoveto
          -6 242 callsubr
          81 69 97.02000427246094 53 rrcurveto
          121 callgsubr
          hlineto
          -534 1531.990005493164 rlineto
          -433.99000549316406 hlineto
          -530 -1531.990005493164 rlineto
          398.99000549316406 hlineto
          80 284 rlineto
          531 hlineto
          31 callsubr
          -6 callsubr
          hlineto
          -117 -58 -124.00999450683594 -104 5.0200042724609375 -146 rrcurveto
          -131 4 -6 callgsubr
          142 callsubr
          146 hhcurveto
          -60 callgsubr
          78.00999450683594 24 -23 callsubr
          66.99000549316406 hvcurveto
          170 vlineto
          -12 -37 197 callgsubr
          -8 -35 hhcurveto
          -71 -50 23 65 -4.0099945068359375 hvcurveto
          -705.9900054931641 761 rmoveto
          hintmask 01111010
          -77 callgsubr
          hintmask 10110101
          -377 hlineto
          endchar
        </CharString>
        <CharString name="Aring">
          154 0 43 240.99000549316406 265.99000549316406 1264.009994506836 163 hstem
          52 callgsubr
          261 callsubr
          318.02000427246094 204 vstem
          1075 hmoveto
          171 callgsubr
          hlineto
          -507 1454 72 47 48 75 1 63 callsubr
          rlinecurve
          261 callgsubr
          123 callgsubr
          -137 93 -222 hhcurveto
          -176.99000549316406 -188 -66.00999450683594 -216 -4 hvcurveto
          -2 -109 42 -82 -63 callgsubr
          -51 -502.99000549316406 -1452.990005493164 rcurveline
          398.99000549316406 hlineto
          80 284 rlineto
          531 hlineto
          31 callsubr
          -346.00999450683594 1814 rmoveto
          92 -1 68.02000427246094 -39 -89 vvcurveto
          -106 -64 -17 146 callgsubr
          1 vhcurveto
          -92 -66 -53 callgsubr
          84.00999450683594 104 75 20 83 -1 hvcurveto
          -193.99000549316406 -1264 rmoveto
          -77 callgsubr
          -377 hlineto
          endchar
        </CharString>
        <CharString name="Atilde">
          -88 callgsubr
          32.010009765625 24 callsubr
          -19 1497.979995727539 hintmask 11010110
          573.9900054931641 1698 rmoveto
          164 callgsubr
          hintmask 11011010
          160 109 119.99000549316406 55 callgsubr
          -46 -32.99000549316406 -60 -59 -70 hhcurveto
          hintmask 11010110
          -106.99000549316406 102 callsubr
          33 61 183 callgsubr
          64 hhcurveto
          501 -1698 rmoveto
          -98 callgsubr
          hintmask 11100110
          -77 callgsubr
          hintmask 11010110
          -377 hlineto
          endchar
        </CharString>
        <CharString name="B">
          156 -14 248.99000549316406 -234.99000549316406 43 616.9799957275391 235 386 256 -54.94999694824219 -66 callsubr
          257 callgsubr
          391.99998474121094 363 -309 390 hintmask 00000000
          hintmask 01101100
          -78 callsubr
          1523 rmoveto
          -1523 192 vlineto
          hintmask 10110101
          53 callgsubr
          hintmask 10110110
          67 callsubr
          hintmask 01101100
          -185 1 rlineto
          hintmask 10110110
          12 callgsubr
          hintmask 10110101
          38 callsubr
        </CharString>
        <CharString name="C">
          -12 callgsubr
          hstem
          -67 callgsubr
          220 callgsubr
          vstem
          863.9900054931641 1537.990005493164 -99 callgsubr
        </CharString>
        <CharString name="CR">
          -1306 endchar
        </CharString>
        <CharString name="Cacute">
          -12 callgsubr
          128.02000427246094 43 hstem
          -67 callgsubr
          220 callgsubr
          vstem
          910.9900054931641 278 rmoveto
          -284 -147 139 callgsubr
          301 294.02000427246094 182 160.99000549316406 233 182.99000549316406 91.00999450683594 -59 -29 -23 callsubr
          hvcurveto
          50 329.00999450683594 -36 callsubr
          144 callgsubr
          -92 259 callsubr
          -201 66 callgsubr
          rlinecurve
          92.02000427246094 37 84 callsubr
          164 126 callsubr
          168 -128 rcurveline
          -435 -1 -343 -263.97999572753906 -515.0099945068359 vvcurveto
          -471 280 -302.97999572753906 502.99000549316406 178.02000427246094 117 46.97999572753906 33.02000427246094 100 callgsubr
          vhcurveto
          -1 235 callsubr
          -42 -51 -149 -55.99000549316406 -130 hhcurveto
          endchar
        </CharString>
        <CharString name="Ccaron">
          -12 callgsubr
          hstem
          -67 callgsubr
          220 callgsubr
          vstem
          442 262 callgsubr
          271 callsubr
          172 callgsubr
          -12 callsubr
          -175.99000549316406 -115 rlineto
          421.99000549316406 -311.00999450683594 -99 callgsubr
        </CharString>
        <CharString name="Ccedilla">
          0 49 callgsubr
          255 292 957.9799957275391 301.99000549316406 hstem
          -67 callgsubr
          220 callgsubr
          247.00999450683594 -21 callgsubr
          vstem
          1240.990005493164 280 callgsubr
          rmoveto
          -42 -51 -149 -55.99000549316406 -130 hhcurveto
          -284 -147 139 callgsubr
          301 294.02000427246094 182 160.99000549316406 233 182.99000549316406 91.00999450683594 -59 -29 -23 callsubr
          hvcurveto
          50 329.00999450683594 rlineto
          144 callgsubr
          -92.02000427246094 -32 callsubr
          42 -211 hhcurveto
          -435 -344 -264.99000549316406 -515.0099945068359 -419 221 -286 403 -57.97999572753906 hvcurveto
          11 -77 callsubr
          -13 callgsubr
          -35 -5 callgsubr
          -53 rrcurveto
          -99 -1 -51.02000427246094 -51 -64.97999572753906 hhcurveto
          -31 -77 callsubr
          3 11 -17 hvcurveto
          244 callgsubr
          288 callsubr
          186 callsubr
          67.00999450683594 -12 82 -24 52.99000549316406 141 197 callsubr
          98 38.970001220703125 69 29.029998779296875 -1 211 callgsubr
          rcurveline
          endchar
        </CharString>
        <CharString name="Ccircumflex">
          -12 callgsubr
          117.02000427246094 98 callsubr
          84.99000549316406 220 callgsubr
          hintmask 00000000
          hintmask 11101000
          438.99000549316406 180 callsubr
          hintmask 11011000
          87 callgsubr
          62 callgsubr
          -234 hlineto
          hintmask 11101000
          168 callsubr
          hintmask 11011000
          425 -117 -99 callgsubr
        </CharString>
        <CharString name="Cdotaccent">
          -12 callgsubr
          57.00999450683594 367 75 callsubr
          220 callgsubr
          166.99998474121094 135 callgsubr
          hintmask 00000000
          hintmask 11111000
          646.9799957275391 167 callsubr
          rmoveto
          96 callsubr
          -52 callsubr
          -120 -36 callsubr
          -45 callsubr
          -112 vhcurveto
          hintmask 11010000
          217 -234 -99 callgsubr
        </CharString>
        <CharString name="D">
          255 -48 callsubr
          43 1219.979995727539 -65 callsubr
          hintmask 00000000
          hintmask 01011100
          -78 callsubr
          1521.990005493164 1 callgsubr
          hintmask 10101100
          -88 callsubr
          hintmask 10011100
          -22 callgsubr
          -198 -16 -76 hhcurveto
          hintmask 01011100
          -140 hlineto
          hintmask 10101100
          557 -1257 5 callsubr
        </CharString>
        <CharString name="Dcaron">
          255 -48 callsubr
          43 1219.979995727539 -65 callsubr
          hintmask 10101100
          378.97999572753906 227 callgsubr
          172 callgsubr
          15 callsubr
          hintmask 01011100
          -205.99000549316406 -327 1 callgsubr
          hintmask 10101100
          -88 callsubr
          hintmask 10011100
          -22 callgsubr
          -198 -16 -76 hhcurveto
          hintmask 01011100
          -140 hlineto
          hintmask 10101100
          557 -1257 5 callsubr
        </CharString>
        <CharString name="Dcroat">
          -87 callsubr
        </CharString>
        <CharString name="E">
          -36 0 -79 callsubr
          73 callgsubr
          -78 callsubr
          1521.990005493164 -99 callsubr
        </CharString>
        <CharString name="Eacute">
          -36 0 -79 callsubr
          144.00999450683594 43 73 callgsubr
          554.9900054931641 267 callgsubr
          173 -132 89 28 177 172 -65 callgsubr
          124 rlinecurve
          186 callgsubr
          -61 callsubr
          rlinecurve
          -382 -144 -99 callsubr
        </CharString>
        <CharString name="Ebreve">
          -36 0 -79 callsubr
          193 callsubr
          241 callsubr
          73 callgsubr
          314.97999572753906 22 callsubr
          -141.99000549316406 -441 -99 callsubr
        </CharString>
        <CharString name="Ecaron">
          -36 0 -79 callsubr
          73 callgsubr
          302.97999572753906 227 callgsubr
          221 callgsubr
          15 callsubr
          -129.99000549316406 -327 -99 callsubr
        </CharString>
        <CharString name="Ecircumflex">
          -36 0 -79 callsubr
          133.00999450683594 98 callsubr
          111 callgsubr
          hintmask 00000000
          hintmask 11110100
          -14 callsubr
          180 callsubr
          hintmask 11101100
          177.99000549316406 -16 callgsubr
          224 -9 callgsubr
          hintmask 11110100
          168 callsubr
          hintmask 11101100
          -127 -133 -99 callsubr
        </CharString>
        <CharString name="Edieresis">
          -36 0 -79 callsubr
          60.00999450683594 381.99000549316406 hstemhm
          111 callgsubr
          -314.99000549316406 396 144.989990234375 396 hintmask 00000000
          hintmask 11110110
          234.99000549316406 -28 callgsubr
          hintmask 11101000
          -603 -244 -99 callsubr
        </CharString>
        <CharString name="Edotaccent">
          -36 0 -79 callsubr
          72.99998474121094 367 hstemhm
          111 callgsubr
          -43.00001525878906 135 callgsubr
          hintmask 00000000
          hintmask 11110100
          506.97999572753906 167 callsubr
          rmoveto
          96 callsubr
          -52 callsubr
          41 callgsubr
          hintmask 11101000
          -333.99000549316406 -250 -99 callsubr
        </CharString>
        <CharString name="Egrave">
          -36 0 -79 callsubr
          144.00999450683594 43 73 callgsubr
          675.9799957275391 1533.990005493164 rmoveto
          195 callgsubr
          132 125 callgsubr
          79.02000427246094 -122 187 -176 -65 callgsubr
          -73 callsubr
          rlinecurve
          -502.99000549316406 -12 -99 callsubr
        </CharString>
        <CharString name="Emacron">
          -36 0 -79 callsubr
          152.00999450683594 234 hstemhm
          111 callgsubr
          -156.99000549316406 619 hintmask 00000000
          hintmask 11110100
          392.99000549316406 163 callgsubr
          hintmask 11111000
          -220 -386 -99 callsubr
        </CharString>
        <CharString name="Eng">
          247 callgsubr
          hstem
          172.47999572753906 355.50999450683594 572.9900054931641 356 vstem
          1100.979995727539 134 callgsubr
          -670 vlineto
          42 -379 215 callgsubr
          214 -505.02000427246094 835.0099945068359 rlineto
          -363.99000549316406 hlineto
          1 -76 callgsubr
          rlineto
          355 658.9799957275391 hlineto
          -52 394.02000427246094 111 -238.02000427246094 489 -803.9900054931641 rlineto
          -152 -176 -135.99000549316406 -171 -49 vhcurveto
          260 callgsubr
          -22 callgsubr
          rlineto
          306.02000427246094 238 168 199.99000549316406 66.99000549316406 hvcurveto
          43 131.99000549316406 0 99 187 vvcurveto
          1205 -356 vlineto
          endchar
        </CharString>
        <CharString name="Eogonek">
          -49 -515.9900054931641 216.99000549316406 299 -79 callsubr
          hstemhm
          111 callgsubr
          108.99998474121094 305 hintmask 00000000
          hintmask 11111100
          1088.979995727539 -299 rmoveto
          -70.99000549316406 -50 23 65 -4 hvcurveto
          -6 242 callsubr
          81 69 -6 callsubr
          53 rrcurveto
          59 290.97999572753906 -645 348.02000427246094 450.99000549316406 276.99000549316406 -450.99000549316406 322.00999450683594 584.9900054931641 284 -961.9900054931641 -76 callgsubr
          722 hlineto
          -117 -58 -124 277 callsubr
          100 callsubr
          -6 callgsubr
          142 callsubr
          146 hhcurveto
          113 -63 callgsubr
          24 -23 callsubr
          67.00999450683594 hvcurveto
          170 vlineto
          -12 -37 -38.02000427246094 -8 -34 hhcurveto
          endchar
        </CharString>
        <CharString name="Eth">
          -87 callsubr
        </CharString>
        <CharString name="Euro">
          172 -28 287 callsubr
          226 205 166.010009765625 261 callsubr
          209.00999450683594 281 hstem
          266.99000549316406 239 callgsubr
          vstem
          1320.979995727539 321.97999572753906 rmoveto
          -42 -62 245 callgsubr
          -34 -124 hhcurveto
          -180 -101 256 callsubr
          140.99000549316406 -50 hvcurveto
          438.99000549316406 205 -478 hlineto
          -70 callgsubr
          38 -1 40 41 vvcurveto
          16 0 16 1 15.009994506835938 vhcurveto
          526 204.99000549316406 -485 hlineto
          60.99000549316406 147 120.00999450683594 63 146 -1 157 -5 callgsubr
          63 -25 69 -42 53 288.00999450683594 rcurveline
          -86 144 callgsubr
          -80.02000427246094 50 -227.97999572753906 -8 -327 -12 -233 -164 -36 callsubr
          -314 rrcurveto
          -194.99000549316406 -204.99000549316406 158 hlineto
          -3 182 callsubr
          -51 callgsubr
          -41 -42.99000549316406 vvcurveto
          83 callgsubr
          0 -13.990005493164062 123 callgsubr
          123 callsubr
          vhcurveto
          -184 -205 208 hlineto
          -316.99000549316406 71 221 -182.99000549316406 374 hhcurveto
          280 59 59.97999572753906 11 -36 callgsubr
          hvcurveto
          -60 279 rlineto
          endchar
        </CharString>
        <CharString name="F">
          148 callsubr
          hstem
          -78 callsubr
          379.97999572753906 vstem
          -78 callsubr
          1521.990005493164 69 callsubr
        </CharString>
        <CharString name="G">
          -72 callsubr
          173 callsubr
          826.9799957275391 854 91 callsubr
          -103 callsubr
          -565 vlineto
          endchar
        </CharString>
        <CharString name="Gbreve">
          -72 callsubr
          57 230 70 callsubr
          hintmask 00000000
          hintmask 11111100
          841.9900054931641 1594.979995727539 rmoveto
          248 137 147 222 -2 237 callsubr
          -19.009994506835938 -92 147 callgsubr
          189 callsubr
          -222 -70 callgsubr
          128 -147 261 hhcurveto
          83 callgsubr
          -740.9900054931641 91 callsubr
          -82 callsubr
          hvcurveto
          hintmask 11101100
          -61 callgsubr
          vhcurveto
          10 318 rlineto
          22.020004272460938 -115 -99 -29 callgsubr
          -223 hhcurveto
          -440 -348 -222 -563 -485 291 -283.9700012207031 454 345 98 -6 callsubr
          5 -62 callgsubr
          hvcurveto
          768 vlineto
          hintmask 11111100
          -565 hlineto
          endchar
        </CharString>
        <CharString name="Gcaron">
          -72 callsubr
          173 callsubr
          960 1559 rmoveto
          221 callgsubr
          71 callgsubr
          4 callgsubr
          268 callgsubr
          -133.02000427246094 -705 91 callsubr
          -103 callsubr
          -565 vlineto
          endchar
        </CharString>
        <CharString name="Gcircumflex">
          -72 callsubr
          118.02000427246094 43 -41 43 70 callsubr
          hintmask 11101110
          841.9900054931641 1734.979995727539 rmoveto
          136 callsubr
          -193 178.02000427246094 95 callgsubr
          hintmask 11110110
          168 callsubr
          hintmask 11101110
          177.99000549316406 51 callsubr
          223 193 rlineto
          83 callgsubr
          -880.9900054931641 91 callsubr
          -103 callsubr
          -565 vlineto
          endchar
        </CharString>
        <CharString name="Gcommaaccent">
          202 -64 callsubr
          455.989990234375 283.97999572753906 306.00001525878906 280 385.989990234375 298 75 callsubr
          114 callgsubr
          235.00999450683594 274 60.989990234375 170 callsubr
          hintmask 01111101
          826.9799957275391 854 91 callsubr
          -103 callsubr
          -565 vlineto
          hintmask 01111111
          57.02000427246094 -938 rmoveto
          10 callsubr
          18 callgsubr
          hintmask 10111111
          212 callgsubr
          7 callsubr
          rlineto
          38.02000427246094 152 callsubr
          hintmask 01111111
          -54 callsubr
          endchar
        </CharString>
        <CharString name="Gdotaccent">
          -72 callsubr
          58 367 75 callsubr
          114 callgsubr
          175.00999450683594 135 callgsubr
          -6.0000152587890625 170 callsubr
          hintmask 00000000
          hintmask 11111100
          841.9900054931641 1595.990005493164 rmoveto
          121 87 80 111 2 callgsubr
          -70 62 -121 142 callgsubr
          -2 callsubr
          -112 260 callgsubr
          -65 265 callsubr
          83 callgsubr
          -741.9900054931641 91 callsubr
          hintmask 11101010
          -103 callsubr
          vlineto
          hintmask 11111100
          -565 hlineto
          endchar
        </CharString>
        <CharString name="Gtilde">
          -72 callsubr
          27.010009765625 266.99000549316406 -133.010009765625 264 70 callsubr
          hintmask 11101110
          684.9900054931641 1698.979995727539 rmoveto
          275 callsubr
          hintmask 11110110
          184 callsubr
          109.02000427246094 120 55 callgsubr
          -46.02000427246094 -32.99000549316406 -60 -58.97999572753906 -70 hhcurveto
          hintmask 11101110
          25 callgsubr
          -113 -116 -116 166 callsubr
          hvcurveto
          208 callsubr
          257 callsubr
          61 55.99000549316406 64 hhcurveto
          141.99000549316406 -844.9799957275391 91 callsubr
          -103 callsubr
          -565 vlineto
          endchar
        </CharString>
        <CharString name="H">
          325 0 43 587.9799957275391 274 576.0500030517578 90 callgsubr
          113 callgsubr
          521.9999847412109 380 vstem
          -78 callsubr
          1521.990005493164 68 callgsubr
        </CharString>
        <CharString name="Hbar">
          337 0 43 529.9799957275391 265.99000549316406 261 callgsubr
          219.99000549316406 -219.99000549316406 486.99000549316406 118 callgsubr
          385 526.989990234375 385 hintmask 00000000
          hintmask 11101100
          1617.979995727539 1254.990005493164 rmoveto
          212 callsubr
          hlineto
          270 callgsubr
          -526.9900054931641 vlineto
          270 callgsubr
          -145 vlineto
          hintmask 11011100
          -220 145 -1035 385 572.9900054931641 526.9900054931641 -572.9900054931641 385 1035 147.99000549316406 vlineto
          hintmask 11101100
          220 vlineto
          hintmask 11011100
          -533 -416.00999450683594 rmoveto
          -526.9900054931641 261 callgsubr
          526.9900054931641 -196.02000427246094 hlineto
          endchar
        </CharString>
        <CharString name="Hcircumflex">
          325 0 43 587.9799957275391 274 576.0500030517578 -102 callgsubr
          133 43 -40.99000549316406 43 132 callgsubr
          521.9999847412109 380 hintmask 00000000
          hintmask 11110110
          413.97999572753906 180 callsubr
          hintmask 11101110
          178 -29 callsubr
          242 callgsubr
          192.99000549316406 62 callgsubr
          -233.99000549316406 hlineto
          hintmask 11110110
          -284.02000427246094 -308 rlineto
          hintmask 11101110
          -240.99000549316406 -133 68 callgsubr
        </CharString>
        <CharString name="I">
          -552 -85 callgsubr
          74 callsubr
          185 1521.990005493164 -71 callsubr
          endchar
        </CharString>
        <CharString name="I.uc">
          -50 callgsubr
        </CharString>
        <CharString name="IJ">
          248 -85 callgsubr
          99 callgsubr
          421.989990234375 384 vstem
          185 1521.990005493164 -71 callsubr
          534 -1662.990005493164 rmoveto
          83 -191 170.99000549316406 -62 callsubr
          166 callsubr
          116 callgsubr
          -99 -63 -99 -39 rrcurveto
          endchar
        </CharString>
        <CharString name="IJ_acutecomb">
          248 71 callsubr
          -40.99000549316406 43 253 callgsubr
          421.989990234375 384 hintmask 11011100
          1015.9900054931641 1667.990005493164 rmoveto
          247 callsubr
          171.99000549316406 83 124 rlinecurve
          -262 129.99000549316406 -73 callsubr
          -79 279 callgsubr
          hintmask 11101100
          -784 -2 -58 callgsubr
          -47 -144 -71 callsubr
          534 -1662.990005493164 rmoveto
          83 -191 170.99000549316406 -62 callsubr
          166 callsubr
          116 callgsubr
          -99 -63 -99 -39 rrcurveto
          endchar
        </CharString>
        <CharString name="Iacute">
          -552 120 callgsubr
          184.99000549316406 384 vstem
          232 1665.990005493164 -58 callgsubr
          -47 -144 -71 callsubr
          endchar
        </CharString>
        <CharString name="Ibreve">
          -552 -85 callgsubr
          72 241 callsubr
          74 callsubr
          -8.990005493164062 1962.990005493164 rmoveto
          -222 -3 128 -146.99000549316406 261 hhcurveto
          65 callgsubr
          137 61 callsubr
          147 callgsubr
          180 callgsubr
          -5 hvcurveto
          82 callgsubr
          hlineto
          193.99000549316406 -441 -71 callsubr
          endchar
        </CharString>
        <CharString name="Icircumflex">
          -552 -85 callgsubr
          133 43 -40.99000549316406 43 207 callgsubr
          hintmask 11101000
          -24 180 callsubr
          hintmask 11011000
          177.99000549316406 -16 callgsubr
          1 callsubr
          hintmask 11101000
          -283.99000549316406 -308 rlineto
          hintmask 11011000
          209 -133 -71 callsubr
          endchar
        </CharString>
        <CharString name="Idieresis">
          -552 -85 callgsubr
          60 381.99000549316406 207 callgsubr
          hintmask 11110000
          -89 227 callsubr
          116 242 callsubr
          -49 callsubr
          244 callsubr
          9 callsubr
          -114 263 callgsubr
          114 39 callsubr
          vhcurveto
          hintmask 11010000
          -267 -244 -71 callsubr
          endchar
        </CharString>
        <CharString name="Idotaccent">
          -50 callgsubr
        </CharString>
        <CharString name="Igrave">
          -552 120 callgsubr
          184.99000549316406 384 vstem
          351.99000549316406 1533.990005493164 rmoveto
          173 93 callgsubr
          83 -73 callsubr
          rlinecurve
          -166.99000549316406 -12 -71 callsubr
          endchar
        </CharString>
        <CharString name="Imacron">
          -552 -85 callgsubr
          152 234 74 callsubr
          69 1908 rmoveto
          -234 618.9900054931641 234 -618.9900054931641 vlineto
          116 -386 -71 callsubr
          endchar
        </CharString>
        <CharString name="Iogonek">
          -547 -515.9900054931641 216.99000549316406 299 -81 callgsubr
          207 callgsubr
          hintmask 11110000
          467.99000549316406 -299 rmoveto
          -71 243 callsubr
          288 callsubr
          65 -4.0200042724609375 hvcurveto
          -6 88.99000549316406 121 callsubr
          65 101 callgsubr
          53 rrcurveto
          66.00999450683594 26 callgsubr
          -76 callgsubr
          76.99000549316406 hlineto
          -104.99000549316406 -58 -128 277 callsubr
          4 135 142 callsubr
          146 hhcurveto
          113 callsubr
          78.00999450683594 24 -23 callsubr
          66.99000549316406 hvcurveto
          170 vlineto
          -12 197 callgsubr
          -38 -8 -34 hhcurveto
          endchar
        </CharString>
        <CharString name="Itilde">
          -552 -85 callgsubr
          42 24 callsubr
          184.99000549316406 384 hintmask 11011000
          -71 1729.990005493164 rmoveto
          132.99000549316406 152 callgsubr
          hintmask 11101000
          184 callsubr
          109.02000427246094 56 callsubr
          55 callgsubr
          -46 -33 -60 -59 -70 hhcurveto
          hintmask 11011000
          25 callgsubr
          51 callgsubr
          -116 -116 -31 hvcurveto
          256 -208 -71 callsubr
          endchar
        </CharString>
        <CharString name="J">
          -506 1481.0299987792969 237 callgsubr
          236.99000549316406 384 vstem
          -35 -141 rmoveto
          82.97999572753906 -191 171 -62 callsubr
          259 callgsubr
          116 callgsubr
          144 callsubr
          -63 -99 -39 rrcurveto
          endchar
        </CharString>
        <CharString name="Jcircumflex">
          -506 1481.0299987792969 -102 callgsubr
          134.00999450683594 43 -41 43 hstemhm
          236.99000549316406 384 hintmask 00000000
          hintmask 11010000
          218 callgsubr
          1655.990005493164 rmoveto
          hintmask 10110000
          177.99000549316406 51 callsubr
          223 193 136 callsubr
          -193 178 95 callgsubr
          hintmask 11010000
          168 callsubr
          -55.99000549316406 -1796.990005493164 rmoveto
          82.97999572753906 -191 rlineto
          hintmask 10110000
          171 -8 326 139.02000427246094 57 294.9700012207031 rrcurveto
          -25 callsubr
          259 callgsubr
          -107.99000549316406 vhcurveto
          hintmask 11010000
          -42 -148.99000549316406 144 callsubr
          -63 -99 -39 rrcurveto
          endchar
        </CharString>
        <CharString name="K">
          162 -85 callgsubr
          hstem
          172.99000549316406 379 vstem
          -44 callgsubr
          endchar
        </CharString>
        <CharString name="Kcommaaccent">
          162 -64 callsubr
          471.97999572753906 43 1438.0299987792969 -66 callsubr
          379 117 287 callsubr
          hintmask 01111100
          -44 callgsubr
          -557.0200042724609 -194.99000549316406 rmoveto
          163 callsubr
          24 -54 callgsubr
          -8 -42 83 callgsubr
          -73 callsubr
          vhcurveto
          -27 vlineto
          hintmask 10111100
          165 7 callsubr
          rlineto
          38 18 93.99000549316406 -23 callgsubr
          hintmask 01111100
          -54 callsubr
          endchar
        </CharString>
        <CharString name="L">
          119 callsubr
          77 callsubr
          endchar
        </CharString>
        <CharString name="Lacute">
          -184 225 callgsubr
          144 43 131 callsubr
          vstem
          217.99000549316406 267 callgsubr
          173 -132 89 28 177 172 -65 callgsubr
          124 rlinecurve
          186 callgsubr
          -61 callsubr
          rlinecurve
          -45 -144 -69 callsubr
          endchar
        </CharString>
        <CharString name="Lcaron">
          119 callsubr
          4 callgsubr
          288 callgsubr
          vstem
          825 1026.990005493164 rmoveto
          157 -41 rlineto
          63 68 14 callsubr
          8.009994506835938 -35 rcurveline
          -652 495 -69 callsubr
          endchar
        </CharString>
        <CharString name="Lcommaaccent">
          -184 -64 callsubr
          471.97999572753906 129 callsubr
          hstemhm
          210 callgsubr
          243 callsubr
          287 callsubr
          hintmask 01111000
          -3 callgsubr
          309.97999572753906 -2036.979995727539 rmoveto
          hintmask 10110100
          165 7 callsubr
          rlineto
          38 18 93.99000549316406 42 callgsubr
          163 callsubr
          hintmask 01110100
          24 -54 callgsubr
          -8 -42 -15.020004272460938 264 callgsubr
        </CharString>
        <CharString name="Ldot">
          122 0 7 callgsubr
          345.010009765625 438 411.0399932861328 40.96000671386719 131 callsubr
          77 callsubr
          688 -679 rmoveto
          142 callgsubr
          123 callgsubr
          83 77 callgsubr
          123 hhcurveto
          125.99000549316406 255 callgsubr
          -45 callgsubr
          3 callgsubr
          -1 hvcurveto
          56 callsubr
          112 callsubr
          92 callgsubr
          -126 171 callsubr
          280 callsubr
          endchar
        </CharString>
        <CharString name="Lslash">
          119 callsubr
          vstem
          559.9799957275391 7 callgsubr
          rmoveto
          453 vlineto
          325 -38 callsubr
          194 callsubr
          196 -252 -93 rlineto
          560 -386.99000549316406 -703 vlineto
          -155 -57 217 callsubr
          -194 82 30 rlineto
          -598 889 7 callgsubr
          -502.00999450683594 vlineto
          endchar
        </CharString>
        <CharString name="M">
          158 callgsubr
          hstemhm
          64 1854.990005493164 hintmask 00111000
          239.97999572753906 134 callgsubr
          hintmask 01011000
          85 callsubr
          hintmask 10011000
          124 callsubr
          hintmask 00111000
          85 callgsubr
          -513 hlineto
          endchar
        </CharString>
        <CharString name="N">
          325 18 callsubr
          vstem
          1112.990005493164 134 callgsubr
          -670 vlineto
          -100 callgsubr
          hlineto
          endchar
        </CharString>
        <CharString name="NULL">
          -1306 endchar
        </CharString>
        <CharString name="Nacute">
          326 120 callgsubr
          108 callgsubr
          vstem
          1198 40 callsubr
          -85.00999450683594 -336 rmoveto
          -670 vlineto
          -100 callgsubr
          hlineto
          endchar
        </CharString>
        <CharString name="Ncaron">
          326 18 callsubr
          vstem
          939.9900054931641 270 callsubr
          -174.99000549316406 115 -224 -167 -223 167 -175.99000549316406 -115 271 callsubr
          173 -36 rmoveto
          -670 vlineto
          -100 callgsubr
          hlineto
          endchar
        </CharString>
        <CharString name="Ncommaaccent">
          326 -64 callsubr
          471.97999572753906 43 1438.0299987792969 -66 callsubr
          344.97999572753906 165.00999450683594 274 156 345 hintmask 01111110
          1112.990005493164 134 callgsubr
          -670 vlineto
          -100 callgsubr
          hlineto
          -255 -1606 rmoveto
          10 callsubr
          18 callgsubr
          hintmask 10111110
          13 callsubr
          hintmask 01111110
          -54 callsubr
          endchar
        </CharString>
        <CharString name="Ntilde">
          326 -85 callgsubr
          42 24 callsubr
          108 callgsubr
          hintmask 11011100
          664.9900054931641 1698 rmoveto
          154 callsubr
          -127 136 rlineto
          -46 -33.02000427246094 -59.99000549316406 -59 -70 hhcurveto
          hintmask 11011100
          -13 callsubr
          102 callsubr
          33.02000427246094 60.99000549316406 183 callgsubr
          64 hhcurveto
          448 -176 rmoveto
          -670 vlineto
          -100 callgsubr
          hlineto
          endchar
        </CharString>
        <CharString name="O">
          -72 callgsubr
          hstem
          -64 callgsubr
          vstem
          93 768.9799957275391 -105 callgsubr
        </CharString>
        <CharString name="OE">
          850 -97 callsubr
          285.97999572753906 -269.989990234375 290.97999572753906 351 277.00999450683594 319.00001525878906 -8 callsubr
          -277.99000549316406 293.99000549316406 hstemhm
          -6 callsubr
          390 562.989990234375 257 callgsubr
          hintmask 01110110
          1427.990005493164 290.97999572753906 rmoveto
          351.00999450683594 434 277.00999450683594 -434 319 579.0099945068359 284 -957.0099945068359 vlineto
          hintmask 10101110
          -41 vlineto
          -55 35 -20 callsubr
          23 -105 -1 -392.00999450683594 -51 callgsubr
          -313 -241 -8.990005493164062 -526.0099945068359 -9.009994506835938 -462.99000549316406 249.02000427246094 -323.99000549316406 436 2 56 callsubr
          1 94 26.970001220703125 63 39.02000427246094 rrcurveto
          hintmask 01110110
          -51 210 callsubr
          hintmask 10101110
          -619 -20.990005493164062 rmoveto
          -203 245 callgsubr
          167 321 425 197 61 283 callsubr
          103.02000427246094 69 -44.02000427246094 -60.99000549316406 45 hvcurveto
          -767 vlineto
          -76 -49.99000549316406 -80.02000427246094 -77 callsubr
          -111 hhcurveto
          endchar
        </CharString>
        <CharString name="Oacute">
          -72 callgsubr
          128.010009765625 43 hstem
          -64 callgsubr
          vstem
          867.9799957275391 267 callsubr
          92.02000427246094 38 84 callsubr
          163 126 callsubr
          166.99000549316406 -128 rcurveline
          -24.990005493164062 hlineto
          -82 callgsubr
          -9.009994506835938 -483.99000549316406 263 -310 449 9.020004272460938 416.99000549316406 -13 callgsubr
          286 230.99000549316406 10 540 9.009994506835938 467 138 callsubr
          300.00999450683594 -407 -13 callgsubr
          rrcurveto
          -65 24 callgsubr
        </CharString>
        <CharString name="Obreve">
          -72 callgsubr
          56.010009765625 241 callsubr
          109 callgsubr
          hintmask 00000000
          hintmask 11111000
          442.97999572753906 22 callsubr
          hintmask 11011000
          -349.99000549316406 -1194 -105 callgsubr
        </CharString>
        <CharString name="Ocircumflex">
          -72 callgsubr
          117.010009765625 43 -40.99000549316406 43 109 callgsubr
          hintmask 00000000
          hintmask 11101100
          427.99000549316406 180 callsubr
          hintmask 11011100
          177.99000549316406 -16 callgsubr
          224 -9 callgsubr
          hintmask 11101100
          168 callsubr
          hintmask 11011100
          -335 -886 -105 callgsubr
        </CharString>
        <CharString name="Odieresis">
          -72 callgsubr
          44.010009765625 181 callgsubr
          93 391.97999572753906 -122 236 callgsubr
          -182.989990234375 391.97999572753906 hintmask 00000000
          hintmask 11101100
          362.99000549316406 -28 callgsubr
          hintmask 11010010
          -810.9900054931641 -997.0099945068359 -105 callgsubr
        </CharString>
        <CharString name="Ograve">
          297 -97 callsubr
          278.97999572753906 988.9900054931641 284.99000549316406 129.02000427246094 43 hstem
          -64 callgsubr
          vstem
          826 267 callsubr
          -6 -6 0 -1 -6 hvcurveto
          169 129 125 callgsubr
          77 -118 178 -169 167 callgsubr
          -34 rlinecurve
          -407 -20.990005493164062 -286 -220 -10 -527.0099945068359 -9.009994506835938 -483.99000549316406 263 -310 449 9.020004272460938 416.99000549316406 -13 callgsubr
          286 230.99000549316406 10 540 9.009994506835938 483 -260.02000427246094 304 169 callgsubr
          -12 rrcurveto
          -23.020004272460938 24 callgsubr
        </CharString>
        <CharString name="Ohungarumlaut">
          -72 callgsubr
          119.02000427246094 43 hstem
          -64 callgsubr
          vstem
          451.99000549316406 1657 rmoveto
          179 -22 callsubr
          64 29 153 160 81 196 callgsubr
          rlinecurve
          -258 118 -35 -20 callsubr
          -143 -187 -41 -40 rlinecurve
          517 hmoveto
          182 -22 callsubr
          66.99000549316406 29 154 164 -63 callgsubr
          118 rlinecurve
          -256 -62 callgsubr
          -37.99000549316406 -45 callsubr
          -146 -186 -41 -40 rlinecurve
          -876 -888.0200042724609 -105 callgsubr
        </CharString>
        <CharString name="Omacron">
          -72 callgsubr
          136.010009765625 234 hstemhm
          93 391.97999572753906 36.010009765625 619 -23 391.97999572753906 hintmask 00000000
          hintmask 11111000
          520.9900054931641 163 callgsubr
          hintmask 11110100
          -428 -1139.020004272461 -105 callgsubr
        </CharString>
        <CharString name="Oslash">
          46 callgsubr
          hintmask 00000000
          hintmask 10111000
          1128.979995727539 1483.979995727539 -90 callsubr
        </CharString>
        <CharString name="Oslashacute">
          46 callgsubr
          hintmask 11011000
          1107.990005493164 1897.979995727539 rmoveto
          186 callgsubr
          -73 callsubr
          -79 -193 -203.02000427246094 -41 -40 rlinecurve
          247 callsubr
          172 83 123.99000549316406 rlinecurve
          hintmask 10111000
          21 -414 -90 callsubr
        </CharString>
        <CharString name="Otilde">
          -72 callgsubr
          26.010009765625 266.99000549316406 -132.99000549316406 263.97999572753906 109 callgsubr
          hintmask 11011100
          380.99000549316406 1729.990005493164 rmoveto
          208 callsubr
          257 callsubr
          61 183 callgsubr
          64 154 callsubr
          -127.02000427246094 136 rlineto
          -46 -33 -60 -59 -70 hhcurveto
          hintmask 11011100
          25 callgsubr
          51 callgsubr
          -116 -116 259 callgsubr
          hvcurveto
          -287.99000549316406 -961 -105 callgsubr
        </CharString>
        <CharString name="P">
          86 0 43 395.97999572753906 272.99000549316406 560.0200042724609 265.99000549316406 -56.95001220703125 -66 callsubr
          8 callgsubr
          408.00999450683594 373 hintmask 00000000
          hintmask 11011100
          -78 callsubr
          1521.990005493164 69 callgsubr
          hintmask 11101100
          396 -220 141 -367 vhcurveto
          hintmask 11011100
          104 callgsubr
          hintmask 11101100
          156 callgsubr
          hintmask 11011100
          -212.99000549316406 -110 112 callsubr
          -143 vhcurveto
          endchar
        </CharString>
        <CharString name="Q">
          297 -355 272.99000549316406 1333.989990234375 286 hstem
          -64 callgsubr
          vstem
          1345.990005493164 -82 rmoveto
          -158 -132 12 -63 callgsubr
          -58 hvcurveto
          305 72 198 234.99000549316406 -13 callgsubr
          448 9.009994506835938 483 -260.02000427246094 304 169 callgsubr
          -12 -82 callgsubr
          -8 -445.99000549316406 223 -299.00999450683594 184 callgsubr
          -35.97999572753906 rrcurveto
          -252.99000549316406 78.00999450683594 199.99000549316406 -36 callsubr
          329.02000427246094 hhcurveto
          -6 callsubr
          109 27 19 36 hvcurveto
          256 vlineto
          -13.990005493164062 -40 -101 83 callgsubr
          -57 hhcurveto
          -861 839.9900054931641 rmoveto
          373 150 121 184.02000427246094 203 95 -193 -285 -74 callgsubr
          -214 -104 207.02000427246094 287.99000549316406 vhcurveto
          endchar
        </CharString>
        <CharString name="R">
          40 callgsubr
          1368.990005493164 110 -84 callgsubr
        </CharString>
        <CharString name="Racute">
          164 0 43 494.97999572753906 257 474 269 -56.94999694824219 -102 callgsubr
          144 43 118 callgsubr
          379.97999572753906 410.02000427246094 52 callgsubr
          hintmask 11101110
          1368.990005493164 110 rmoveto
          -103 177.99000549316406 -56 233 -122 101 callgsubr
          rrcurveto
          146.97999572753906 69.02000427246094 94 84 callgsubr
          233 vvcurveto
          360 -264.99000549316406 111 -256 11 vhcurveto
          92 35 169 166 80 120 176 callsubr
          168 -129 rcurveline
          1 -11 -11 0 -11 hhcurveto
          hintmask 11011110
          -90 callgsubr
          hintmask 11101110
          -81 callsubr
          endchar
        </CharString>
        <CharString name="Rcaron">
          40 callgsubr
          890 1558 rmoveto
          281.99000549316406 71 callgsubr
          282 268 callgsubr
          478.99000549316406 -1448 -84 callgsubr
        </CharString>
        <CharString name="Rcommaaccent">
          164 -64 callsubr
          471.97999572753906 94 callsubr
          99.00999450683594 274 37.010009765625 52 callgsubr
          hintmask 0111101010000000
          1368.990005493164 110 rmoveto
          -103 177.99000549316406 -56 233 -122 101 callgsubr
          rrcurveto
          146.97999572753906 69.02000427246094 94 84 callgsubr
          233 vvcurveto
          382.00999450683594 -298 100.99000549316406 -268.97999572753906 vhcurveto
          hintmask 0111011010000000
          -90 callgsubr
          hintmask 0111101010000000
          -81 callsubr
          hintmask 0111101110000000
          274 -1334.979995727539 rmoveto
          163 callsubr
          23.990005493164062 35 callsubr
          -27 vlineto
          hintmask 1011101110000000
          165 7 callsubr
          rlineto
          38.02000427246094 18 93.97999572753906 -23 callgsubr
          hintmask 0111101110000000
          -54 callsubr
          endchar
        </CharString>
        <CharString name="S">
          19 callsubr
          hstem
          27 callsubr
          vstem
          129.99000549316406 -63 callgsubr
          rmoveto
          9 callgsubr
          -102 callsubr
          -47 -296 rcurveline
          endchar
        </CharString>
        <CharString name="Sacute">
          -77 -97 callsubr
          292.97999572753906 985.0000152587891 274.97999572753906 -274.97999572753906 183 callsubr
          128.02000427246094 43 hstemhm
          27 callsubr
          hintmask 10111100
          747.9900054931641 907.9799957275391 rmoveto
          -184 84 -57 callsubr
          50 92.02000427246094 vvcurveto
          76.99000549316406 66 51.02000427246094 144 133 143 -49 -48 60.99000549316406 vhcurveto
          hintmask 11011100
          59 286 -52 30 -132 51 -206 5 rlinecurve
          91 37 168.02000427246094 164 79.99000549316406 120 186 callgsubr
          rcurveline
          -26.009994506835938 16 callgsubr
          rrcurveto
          hintmask 10111100
          168.02000427246094 -128 rlineto
          -24 hlineto
          -322.00999450683594 -221 -140 -277 -245 163 -135 194 -92 hvcurveto
          53 callsubr
          9 callgsubr
          358.02000427246094 197 177.99000549316406 273 239 -156 116 -262 117.99000549316406 hvcurveto
          endchar
        </CharString>
        <CharString name="Scaron">
          19 callsubr
          hstem
          27 callsubr
          vstem
          264.99000549316406 262 callgsubr
          221 callgsubr
          -291 rlineto
          234 -14 callgsubr
          -135 -1771.009994506836 rmoveto
          9 callgsubr
          -102 callsubr
          -47 -296 rcurveline
          endchar
        </CharString>
        <CharString name="Scedilla">
          -77 49 callgsubr
          256 43 -43 289.99000549316406 -282.99000549316406 43 1224.990005493164 183 callsubr
          190 callsubr
          58.99998474121094 -21 callgsubr
          -0.9799957275390625 380.97999572753906 hintmask 10011101
          1165.990005493164 435 rmoveto
          239 -156 116 -262 117.99000549316406 vhcurveto
          -184 84 -57 callsubr
          50 92.02000427246094 vvcurveto
          76.99000549316406 66 51.02000427246094 144 133 143 -49 -48 60.99000549316406 vhcurveto
          59 286 rlineto
          32 -55 -145.99000549316406 64 callgsubr
          -228 hhcurveto
          -322.00999450683594 -221 -140 -277 -245 163 -135 194 -92 hvcurveto
          hintmask 10101101
          53 callsubr
          hintmask 11001110
          52 218 callsubr
          162 -48 185.02000427246094 -11 10 -73 callsubr
          6 -32 -1 -48 -21 callsubr
          hintmask 10011110
          1 70 -13 86 -27 54 rrcurveto
          hintmask 10011101
          272 40 147 212 callgsubr
          236.02000427246094 vvcurveto
          endchar
        </CharString>
        <CharString name="Scircumflex">
          19 callsubr
          117.02000427246094 43 -40.99000549316406 43 hstemhm
          27 callsubr
          hintmask 00000000
          hintmask 11101100
          261.97999572753906 52 callsubr
          -233.99000549316406 hlineto
          hintmask 11101100
          -284.02000427246094 -308 rlineto
          hintmask 11011100
          -132 -1577 rmoveto
          9 callgsubr
          -102 callsubr
          -47 -296 rcurveline
          endchar
        </CharString>
        <CharString name="Scommaaccent">
          -77 -64 callsubr
          455.989990234375 292.97999572753906 985.0000152587891 183 callsubr
          190 callsubr
          43.00999450683594 274 -17 380.97999572753906 hintmask 01111010
          129.99000549316406 -63 callgsubr
          rmoveto
          9 callgsubr
          -102 callsubr
          -47 -296 rcurveline
          375.00999450683594 -592.9700012207031 rmoveto
          hintmask 10111100
          212 callgsubr
          7 callsubr
          rlineto
          38 -25 callgsubr
          hintmask 01111100
          24 -54 callgsubr
          -8 117 callgsubr
          hintmask 01111010
          -27 vlineto
          endchar
        </CharString>
        <CharString name="T">
          -53 0 43 1184.979995727539 141 callsubr
          435 1227.979995727539 -30 callsubr
          endchar
        </CharString>
        <CharString name="Tbar">
          -53 0 43 514.9900054931641 8 callsubr
          431.99998474121094 141 callsubr
          1224.990005493164 1227.979995727539 rmoveto
          135 callsubr
          -1197 166 callgsubr
          169 callgsubr
          -258.00999450683594 -238 258.00999450683594 -558 384 558 285 238 -285 431.99000549316406 406 vlineto
          endchar
        </CharString>
        <CharString name="Tcaron">
          -53 0 43 1184.979995727539 141 callsubr
          226.97999572753906 227 callgsubr
          172 callgsubr
          15 callsubr
          208.02000427246094 -621.0200042724609 -30 callsubr
          endchar
        </CharString>
        <CharString name="Thorn">
          87 0 43 191.99000549316406 269 518 276.99000549316406 182.04998779296875 90 callgsubr
          113 callgsubr
          402.00999450683594 280 callgsubr
          vstem
          798.9900054931641 1298.979995727539 rmoveto
          -82 -88 82 callsubr
          -4.0200042724609375 194 callsubr
          hvcurveto
          235 -383 -76 callgsubr
          383 244.97999572753906 vlineto
          -4 43 76.99000549316406 -6 99 hhcurveto
          362 197 218 351.99000549316406 323.00999450683594 -201 170.99000549316406 -334 hvcurveto
          -109 -794.9900054931641 rmoveto
          -41 -45 0 8.990005493164062 -48 hvcurveto
          494 vlineto
          42 9.009994506835938 -23 callsubr
          5 258 callsubr
          1 rrcurveto
          180 5 87 -91 -145 vvcurveto
          -227 -120.00999450683594 -60 212 callsubr
          vhcurveto
          endchar
        </CharString>
        <CharString name="U">
          -75 callsubr
          hstem
          -67 callsubr
          vstem
          137.99000549316406 637.9900054931641 -104 callgsubr
        </CharString>
        <CharString name="Uacute">
          -75 callsubr
          144 43 hstem
          -67 callsubr
          vstem
          628 1665.990005493164 -58 callgsubr
          -490 -1028 -104 callgsubr
        </CharString>
        <CharString name="Ubreve">
          -75 callsubr
          72 241 callsubr
          hstem
          -67 callsubr
          vstem
          184 callgsubr
          1962.990005493164 rmoveto
          47 callsubr
          65 callgsubr
          137 214 callsubr
          222 -51 callgsubr
          237 callsubr
          -19 -92 147 callgsubr
          180 callgsubr
          -5.0200042724609375 hvcurveto
          82 callgsubr
          hlineto
          -249 -1325 -104 callgsubr
        </CharString>
        <CharString name="Ucircumflex">
          -75 callsubr
          133 43 -40.99000549316406 43 hstemhm
          -67 callsubr
          hintmask 00000000
          hintmask 11101100
          372 52 callsubr
          -234 hlineto
          hintmask 11101100
          168 callsubr
          hintmask 11011100
          -234 -1017 -104 callgsubr
        </CharString>
        <CharString name="Udieresis">
          -75 callsubr
          60 381.99000549316406 272 callsubr
          -211.49998474121094 236 callgsubr
          -212.010009765625 376.00999450683594 hintmask 00000000
          hintmask 11110010
          307 227 callsubr
          vhcurveto
          hintmask 11101010
          116 89 -49 callsubr
          244 callsubr
          9 callsubr
          hvcurveto
          hintmask 11110010
          -114 226 callgsubr
          hvcurveto
          hintmask 11110100
          278 callsubr
          114 vhcurveto
          hintmask 11110010
          26 callsubr
          hvcurveto
          hintmask 11110100
          -115 226 callgsubr
          hvcurveto
          hintmask 11010010
          -710 -1128 -104 callgsubr
        </CharString>
        <CharString name="Ugrave">
          -75 callsubr
          144 43 hstem
          -67 callsubr
          vstem
          748.9900054931641 60 callsubr
          122 callgsubr
          33 callsubr
          79 162 callgsubr
          -611 -896 -104 callgsubr
        </CharString>
        <CharString name="Uhungarumlaut">
          -75 callsubr
          135.00999450683594 43 hstem
          -67 callsubr
          vstem
          395.97999572753906 1657 rmoveto
          179.02000427246094 -22 callsubr
          151 callgsubr
          -20 callsubr
          200 callgsubr
          -22 callsubr
          67.00999450683594 29 213 callsubr
          164 78.00999450683594 118 rlinecurve
          -256 -62 callgsubr
          -38 -45 callsubr
          -145.99000549316406 -186 -41 -40 rlinecurve
          -775 -1019 -104 callgsubr
        </CharString>
        <CharString name="Umacron">
          -75 callsubr
          152 234 hstem
          -67 callsubr
          vstem
          465.97999572753906 163 callgsubr
          -327.99000549316406 -1270 -104 callgsubr
        </CharString>
        <CharString name="Uogonek">
          239 -3 callsubr
          456.989990234375 -57 callgsubr
          272 callsubr
          85.50001525878906 297 130.989990234375 376.00999450683594 hintmask 01111110
          1031.990005493164 134 callgsubr
          -837 vlineto
          -312.00999450683594 -86 3 callsubr
          -171 -170.99000549316406 -89 81 320 2 vhcurveto
          -46 callsubr
          837 rlineto
          -378 hlineto
          -4 -884 -1 -391 171 -260.99000549316406 466.99000549316406 -51 callgsubr
          rlinecurve
          196 callsubr
          -61 -80 -91 5 -124 rrcurveto
          -130.99000549316406 -46 callsubr
          131.99000549316406 -93 146 hhcurveto
          105 85.02000427246094 24 -23 callsubr
          67.99000549316406 hvcurveto
          hintmask 10111110
          170 vlineto
          -12 -37 -37.99000549316406 -8 -34 hhcurveto
          -72 -57 288 callsubr
          65 -4 hvcurveto
          -1 -36 callgsubr
          -11 callsubr
          70 71 66.99000549316406 rrcurveto
          269 76 -38 callsubr
          219 323.00999450683594 vvcurveto
          890 vlineto
          hintmask 01111110
          -376.02000427246094 hlineto
          endchar
        </CharString>
        <CharString name="Uring">
          239 -97 callsubr
          -14 callsubr
          1108.979995727539 170 -96 55 292.010009765625 163 272 callsubr
          -110.50999450683594 205 317.99000549316406 204 238 callsubr
          376.00999450683594 hintmask 10111001
          1085.990005493164 134 callgsubr
          30 43 18 53.99000549316406 123 callgsubr
          69 rrcurveto
          261 callgsubr
          1 147 callgsubr
          93 -222 hhcurveto
          hintmask 10110101
          -177 -187.99000549316406 -66.00999450683594 -216 -4.0200042724609375 hvcurveto
          -5 callgsubr
          -69 16 -58 168 callgsubr
          -46 rrcurveto
          hintmask 10111001
          -313 hlineto
          -4 -884 rlineto
          -393.00999450683594 -1 171.99000549316406 -260.9700012207031 471 hhcurveto
          439.00999450683594 189 -21 callgsubr
          406 hvcurveto
          890 -322.00999450683594 vlineto
          hintmask 11010110
          -315 292 rmoveto
          92 -1 67.99000549316406 -39 -89 vvcurveto
          -106 -64 -17 277 callgsubr
          -92 -66 -53 callgsubr
          84.00999450683594 104 75 20 83.00999450683594 -1 hvcurveto
          hintmask 10111001
          3.9900054931640625 -1530 rmoveto
          -170.99000549316406 -89 81 320 2 hvcurveto
          -46 callsubr
          772 rlineto
          hintmask 11011001
          -42 61 -36 callgsubr
          -22 103.02000427246094 hhcurveto
          hintmask 10111001
          98.97999572753906 96.02000427246094 22 52 69 hvcurveto
          -781.9900054931641 vlineto
          -312.00999450683594 -86 3 callsubr
          -171 vhcurveto
          endchar
        </CharString>
        <CharString name="Utilde">
          -75 callsubr
          42 24 callsubr
          -67 callsubr
          hintmask 11011100
          325 1729.990005493164 rmoveto
          133 152 callgsubr
          hintmask 11101100
          184 callsubr
          109.02000427246094 56 callsubr
          55 callgsubr
          -46 -33 -60 -59 -70 hhcurveto
          hintmask 11011100
          25 callgsubr
          -11 callgsubr
          -116 -116 166 callsubr
          hvcurveto
          -187 -1092 -104 callgsubr
        </CharString>
        <CharString name="V">
          104 -4 43 1442.0299987792969 237 callgsubr
          -12 1433.979995727539 vstem
          -12 134 callgsubr
          553 -1525.979995727539 rlineto
          331.99000549316406 hlineto
          549 1525.979995727539 rlineto
          -406 hlineto
          -227 -769 -76 -296 -76 296 -243 769 rlineto
          -405.99000549316406 hlineto
          endchar
        </CharString>
        <CharString name="W">
          -41 callsubr
          233 callsubr
          hintmask 10011000
          1643.990005493164 134 callgsubr
          -158 -850 rlineto
          hintmask 00111000
          -17 callgsubr
          hintmask 01011000
          -91 callgsubr
          hintmask 10011000
          -367 hlineto
          endchar
        </CharString>
        <CharString name="Wacute">
          -41 callsubr
          144 43 233 callsubr
          hintmask 10011100
          1363.990005493164 1857.990005493164 rmoveto
          186 callgsubr
          -61 callsubr
          rlinecurve
          173 -132 89 21 callgsubr
          280 -336 rmoveto
          -158 -850 rlineto
          hintmask 00111100
          -17 callgsubr
          hintmask 01011100
          -91 callgsubr
          hintmask 10011100
          -367 hlineto
          endchar
        </CharString>
        <CharString name="Wcircumflex">
          -41 callsubr
          133 98 callsubr
          -13 2023.990005493164 hintmask 10010110
          986.9900054931641 1733.979995727539 rmoveto
          1 callsubr
          hintmask 10011010
          168 callsubr
          hintmask 10010110
          87 callgsubr
          rlineto
          657 -211.99000549316406 rmoveto
          -158 -850 rlineto
          hintmask 00110110
          -17 callgsubr
          hintmask 01010110
          -91 callgsubr
          hintmask 10010110
          -367 hlineto
          endchar
        </CharString>
        <CharString name="Wdieresis">
          -41 callsubr
          60 381.99000549316406 233 callsubr
          -1490 236 callgsubr
          hintmask 00000000
          hintmask 10011011
          711.9900054931641 -27 callsubr
          hintmask 00110100
          391 -60 rmoveto
          -158 -850 -17 callgsubr
          hintmask 01010100
          -91 callgsubr
          hintmask 00110100
          -367 hlineto
          endchar
        </CharString>
        <CharString name="Wgrave">
          -41 callsubr
          144 43 233 callsubr
          hintmask 10011100
          962.9900054931641 1533.990005493164 rmoveto
          -78 callsubr
          93 callgsubr
          83.00999450683594 -73 callsubr
          rlinecurve
          681 -12 rmoveto
          -158 -850 rlineto
          hintmask 00111100
          -17 callgsubr
          hintmask 01011100
          -91 callgsubr
          hintmask 10011100
          -367 hlineto
          endchar
        </CharString>
        <CharString name="X">
          89 -85 callgsubr
          -39.96000671386719 -63 callsubr
          13.979995727539062 1370 hintmask 10110000
          927.9900054931641 756 rmoveto
          hintmask 11010000
          442 766 rlineto
          -400 hlineto
          -197 -382 -59 -116 -60 116 rlineto
          hintmask 10110000
          -209 383 -419 -1 438 -743 -450 -779 rlineto
          402 hlineto
          206 391.99000549316406 63 131 64 -131 213 -391.99000549316406 rlineto
          422.00999450683594 hlineto
          -456.00999450683594 756 rlineto
          endchar
        </CharString>
        <CharString name="Y">
          96 callgsubr
          hstem
          448 114 callgsubr
          vstem
          1341.990005493164 1521.990005493164 -89 callgsubr
        </CharString>
        <CharString name="Yacute">
          -17 120 callgsubr
          448 114 callgsubr
          vstem
          1041 40 callsubr
          301 -336 -89 callgsubr
        </CharString>
        <CharString name="Ycircumflex">
          96 callgsubr
          133 98 callsubr
          448 114 callgsubr
          hintmask 11011000
          245 callsubr
          1733.979995727539 rmoveto
          62 callgsubr
          -234 hlineto
          hintmask 11101000
          168 callsubr
          hintmask 11011000
          178.02000427246094 -29 callsubr
          242 callgsubr
          192.99000549316406 rlineto
          678.0099945068359 -211.99000549316406 -89 callgsubr
        </CharString>
        <CharString name="Ydieresis">
          96 callgsubr
          60 181 callgsubr
          197.97999572753906 396 -145.97999572753906 114 callgsubr
          -98.02000427246094 396 hintmask 00000000
          hintmask 11110100
          389 1582 rmoveto
          116 88.99000549316406 -49 callsubr
          -71.99000549316406 9 callsubr
          284 callsubr
          -93 250 callgsubr
          541 hmoveto
          116 88.99000549316406 -49 callsubr
          -70.99000549316406 9 callsubr
          -115 -93.02999877929688 250 callgsubr
          hintmask 11001000
          412 -60 -89 callgsubr
        </CharString>
        <CharString name="Ygrave">
          -17 120 callgsubr
          448 114 callgsubr
          vstem
          639 36 callsubr
          100 callgsubr
          162 callgsubr
          703 -12 -89 callgsubr
        </CharString>
        <CharString name="Z">
          27 callgsubr
          131 callgsubr
          hintmask 11010000
          35.97999572753906 -36 callgsubr
          14 callgsubr
        </CharString>
        <CharString name="Zacute">
          27 callgsubr
          144 43 131 callgsubr
          hintmask 11011000
          529 1665.990005493164 -58 callgsubr
          -493.02000427246094 -1582 rmoveto
          42 66 callsubr
          rlineto
          1128 284 -649 hlineto
          74 105 rlineto
          hintmask 10111000
          613.0099945068359 1052 rlineto
          hintmask 11011000
          -41 81 rlineto
          -1095 -35 callsubr
          endchar
        </CharString>
        <CharString name="Zcaron">
          27 callgsubr
          131 callgsubr
          hintmask 11010000
          183 callsubr
          262 callsubr
          286 callsubr
          73 callsubr
          -224.02000427246094 -167 -222.99000549316406 193 callgsubr
          -240 -1765.009994506836 14 callgsubr
        </CharString>
        <CharString name="Zdotaccent">
          27 callgsubr
          276 callsubr
          131 callgsubr
          -762.9999847412109 135 callgsubr
          hintmask 00000000
          hintmask 10110100
          480.99000549316406 167 callsubr
          rmoveto
          -112 74 205 callsubr
          -52 callsubr
          142 callgsubr
          -2 callsubr
          vhcurveto
          -445.00999450683594 -1688 rmoveto
          42 66 callsubr
          rlineto
          1128 284 -649 hlineto
          74 105 613.0099945068359 1052 rlineto
          hintmask 11001000
          -41 81 rlineto
          -1095 -278 619.9900054931641 hlineto
          -66.99000549316406 -98 rlineto
          hintmask 10110100
          -625.0099945068359 -1062.009994506836 rlineto
          endchar
        </CharString>
        <CharString name="a">
          -86 callgsubr
          -18 callgsubr
          629.9900054931641 1159.990005493164 -107 callgsubr
        </CharString>
        <CharString name="aacute">
          -86 callgsubr
          475 43 -18 callgsubr
          1068.990005493164 1634.979995727539 41 callsubr
          179 callsubr
          117 callsubr
          -439 -474.99000549316406 -107 callgsubr
        </CharString>
        <CharString name="abreve">
          -86 callgsubr
          125.010009765625 242.99000549316406 89 callgsubr
          -213.99000549316406 227 276 172 callsubr
          hintmask 11110110
          639 1285 rmoveto
          103 callgsubr
          -14 -111 -138 hhcurveto
          -143.02000427246094 231 callgsubr
          -232.02000427246094 -70 callgsubr
          134.99000549316406 194 callgsubr
          254.02000427246094 hhcurveto
          -9.009994506835938 -125.00999450683594 rmoveto
          -33 callsubr
          hvcurveto
          75 -218 rlineto
          47 102.00999450683594 159 34 -65 callgsubr
          hhcurveto
          171 37 -24 -99 hvcurveto
          -69 vlineto
          -143 -184 -8.990005493164062 -60 -139 hvcurveto
          hintmask 11111010
          -22 callsubr
          -54 -20 callsubr
          -100.99000549316406 -134 vvcurveto
          -212 147 -151.97999572753906 225 153 100.99000549316406 55.99000549316406 55.99000549316406 64 vhcurveto
          -8 vlineto
          144 callsubr
          41 -5 76 vhcurveto
          232 744.9799957275391 hlineto
          hintmask 11110110
          315 -134 116 -360 vhcurveto
          hintmask 11111010
          -18 -948 rmoveto
          -75 -70 47 107.99000549316406 81.02000427246094 46 28 43 17 hvcurveto
          40 19.009994506835938 88 14.990005493164062 72 1 rrcurveto
          -268 vlineto
          -22 -21.009994506835938 -64 -77 callsubr
          -59 hhcurveto
          endchar
        </CharString>
        <CharString name="acircumflex">
          -86 callgsubr
          -18 callgsubr
          639 106 callsubr
          -305 146 callsubr
          176 -114 293 callsubr
          rlineto
          -9.009994506835938 -315 -107 callgsubr
        </CharString>
        <CharString name="acute">
          -606 1635.990005493164 43 hstem
          36.99000549316406 582 vstem
          36.99000549316406 1396 rmoveto
          62 callsubr
          -243 189 -95 -153 -151 -182.99000549316406 -93 -93 rlinecurve
          endchar
        </CharString>
        <CharString name="acute.cap">
          -629 199 callgsubr
          43 hstem
          216 callgsubr
          521.9900054931641 vstem
          216 callgsubr
          267 callgsubr
          -78 callsubr
          -132 242 callsubr
          28 177 172 -65 callgsubr
          124 rlinecurve
          186 callgsubr
          -61 callsubr
          rlinecurve
          endchar
        </CharString>
        <CharString name="adieresis">
          -86 callgsubr
          120.02000427246094 393.99000549316406 89 callgsubr
          -283.99000549316406 393.00999450683594 124.97999572753906 392 -336.989990234375 172 callsubr
          hintmask 11110101
          372 1280 rmoveto
          115 242 callsubr
          21 callsubr
          -70 77 -117 -11 callgsubr
          -93 273 callgsubr
          113 hvcurveto
          hintmask 11110110
          518 hmoveto
          115 155 callsubr
          -111 76 -78.99000549316406 113 hvcurveto
          hintmask 11111001
          -260.00999450683594 142 callgsubr
          -107 callgsubr
        </CharString>
        <CharString name="ae">
          28 callgsubr
          202 callgsubr
          hintmask 0110011110000000
          1792 692.9799957275391 139 callsubr
          hintmask 0101101110000000
          -75 callgsubr
          hintmask 0110011110000000
          -41 callgsubr
          hintmask 1001011110000000
          -19 callsubr
        </CharString>
        <CharString name="aeacute">
          28 callgsubr
          478.989990234375 43 202 callgsubr
          hintmask 0110011111000000
          1368.990005493164 1634.979995727539 rmoveto
          -243 189 -95.00999450683594 -68 callgsubr
          72 callsubr
          117 callsubr
          423.02000427246094 -942 139 callsubr
          hintmask 0101101111000000
          -75 callgsubr
          hintmask 0110011111000000
          -41 callgsubr
          hintmask 1001011111000000
          -19 callsubr
        </CharString>
        <CharString name="agrave">
          -86 callgsubr
          475 43 -18 callgsubr
          600.9900054931641 162 callsubr
          -154.99000549316406 126 callgsubr
          29 -61 -107 callgsubr
        </CharString>
        <CharString name="amacron">
          -86 callgsubr
          243 8 callsubr
          89 callgsubr
          -137.99000549316406 619 -192 172 callsubr
          hintmask 00000000
          hintmask 11110100
          948 1640.979995727539 rmoveto
          -619 -238 619 238 hlineto
          hintmask 11111010
          -318.00999450683594 -481 -107 callgsubr
        </CharString>
        <CharString name="ampersand">
          234 -97 callsubr
          219.97999572753906 -219.97999572753906 65 callgsubr
          1080.990005493164 233 hstemhm
          60.99000549316406 137 callgsubr
          -166.99000549316406 219 callsubr
          283.00999450683594 303 -2 292 hintmask 00000000
          hintmask 10110010
          1311.990005493164 238.97999572753906 rmoveto
          76 83 48 -60 callgsubr
          166.99000549316406 vvcurveto
          95.00999450683594 -9.020004272460938 -53 callgsubr
          -6 25 vhcurveto
          -293.99000549316406 hlineto
          -46 callsubr
          -28 14.009994506835938 -42 -93 vvcurveto
          181 callsubr
          -17 -76.97999572753906 -38.99000549316406 -55 vhcurveto
          -91.02000427246094 255 callgsubr
          -107.99000549316406 134 -64 86 rrcurveto
          hintmask 01101100
          173 86 148 110 245 vvcurveto
          212 -176 162 -272 -280 -181 -144 -248 -140 58 -116 112 callgsubr
          -105 vhcurveto
          hintmask 01110010
          -181 -80 -126 -115 -188 vvcurveto
          -270.99000549316406 224 -154.99000549316406 455.99000549316406 118 111 28.970001220703125 38.02000427246094 92 vhcurveto
          -40 76 281 callsubr
          122 callgsubr
          111 hhcurveto
          66 64 callgsubr
          7 -13 callgsubr
          35 hvcurveto
          hintmask 10110010
          261 callsubr
          vlineto
          142 callsubr
          181 callsubr
          12 23 -51 hvcurveto
          hintmask 01101100
          -607.9900054931641 1074.009994506836 rmoveto
          110 29 195 callsubr
          -59.99000549316406 -11 callgsubr
          -60 -84 146 callgsubr
          -60.99000549316406 hvcurveto
          3 callsubr
          112 -38.02000427246094 51 89 vvcurveto
          -36 callgsubr
          52 66 92.02000427246094 vhcurveto
          -6 -1081 rmoveto
          hintmask 01110100
          -213 -81 100 callgsubr
          117 112 callgsubr
          39 56 71 47 hvcurveto
          86 182 callgsubr
          -38 callsubr
          147 callgsubr
          107.99000549316406 -114 rrcurveto
          hintmask 01101100
          -8 -35.99000549316406 -42 -4 -51 hhcurveto
          endchar
        </CharString>
        <CharString name="aogonek">
          -43 -3 callsubr
          456.989990234375 227.97999572753906 -215.989990234375 43 488.99000549316406 177.99000549316406 191.99998474121094 262 89 callgsubr
          114.99998474121094 305 -130.989990234375 172 callsubr
          hintmask 0000000000000000
          hintmask 0110111010000000
          1041.979995727539 -97 callsubr
          rmoveto
          82 744.9799957275391 hlineto
          315 -134 116 -360 -33 callsubr
          vhcurveto
          75 -218 rlineto
          47 102.00999450683594 159 34 -65 callgsubr
          hhcurveto
          171 37 -24 -99 hvcurveto
          -69 vlineto
          -143 -184 -8.990005493164062 -60 -139 hvcurveto
          -22 callsubr
          -54 -20 callsubr
          -100.99000549316406 -134 vvcurveto
          -212 147 -151.97999572753906 225 153 100.99000549316406 55.99000549316406 55.99000549316406 64 vhcurveto
          -8 vlineto
          hintmask 0101110010000000
          -53 12 -73 callsubr
          23 -12.979995727539062 vhcurveto
          hintmask 0101110100000000
          -115 -59 -118 -102.00999450683594 5 -22 callgsubr
          rrcurveto
          -131 4.0099945068359375 -6 callgsubr
          142 callsubr
          146 hhcurveto
          113 -63 callgsubr
          24 -23 callsubr
          67.00999450683594 hvcurveto
          hintmask 1001110100000000
          170 vlineto
          -12 -37 197 callgsubr
          -8 -35 hhcurveto
          -71 -50 23 65 -4 hvcurveto
          hintmask 0110111010000000
          -5 84.00999450683594 71 60.99000549316406 88.99000549316406 258 callsubr
          rrcurveto
          -430 227.97999572753906 rmoveto
          -75 -70 47 107.99000549316406 81.02000427246094 46 28 43 17 hvcurveto
          40 19.009994506835938 88 14.990005493164062 72 1 rrcurveto
          -268 vlineto
          -22 -21.009994506835938 -64 -77 callsubr
          -59 hhcurveto
          endchar
        </CharString>
        <CharString name="approxequal">
          140 192 280.97999572753906 -123 278.99000549316406 78.02000427246094 281 -123 278.99000549316406 hstemhm
          184.99000549316406 1072.979995727539 hintmask 01011000
          185 908.9799957275391 rmoveto
          144 212 callsubr
          rlineto
          -53 callgsubr
          43 64 callgsubr
          60 97 hhcurveto
          hintmask 01101000
          159 18 -158 210 hhcurveto
          181 138 141 82 218 callgsubr
          hvcurveto
          -127 162 rlineto
          -42 -41 -58 -61.99000549316406 174 callsubr
          -74.02000427246094 -22 hvcurveto
          7 -514.9900054931641 rmoveto
          143.99000549316406 -148 rlineto
          44 -23 callsubr
          55 59.99000549316406 -6 callsubr
          hhcurveto
          hintmask 10011000
          159 18 -157.97999572753906 210 hhcurveto
          181 138 140.97999572753906 82 218 callgsubr
          hvcurveto
          -127 162 rlineto
          217 callgsubr
          -41 -58 -62 174 callsubr
          -74 -22 hvcurveto
          endchar
        </CharString>
        <CharString name="aring">
          -86 callgsubr
          135.010009765625 169 277.989990234375 163 89 callgsubr
          -193.00001525878906 205 277.010009765625 172 callsubr
          -326.97999572753906 143 callsubr
          hintmask 1111101100000000
          634 1294.990005493164 rmoveto
          hintmask 1111101010000000
          187.99000549316406 177 281 callsubr
          217 66 callgsubr
          hvcurveto
          195.99000549316406 1 147 callgsubr
          106 -222 hhcurveto
          -177 -186.99000549316406 -20 callsubr
          -217 -5.0200042724609375 hvcurveto
          hintmask 1111101100000000
          -192 -70 callgsubr
          134 -122 229 hhcurveto
          hintmask 1111101010000000
          -46 callsubr
          447 rmoveto
          92 -1 68.00999450683594 -52 -89.99000549316406 vvcurveto
          -105 -64 259 callgsubr
          146 callgsubr
          1 vhcurveto
          -92 -66 58 -36 callgsubr
          239 callsubr
          75 33 83 -1 hvcurveto
          hintmask 1111110100000000
          -7 -582 -107 callgsubr
        </CharString>
        <CharString name="asciicircum">
          84 489.97999572753906 1040.990005493164 hstem
          137.99000549316406 1113.979995727539 vstem
          467.99000549316406 489.97999572753906 rmoveto
          -330 hlineto
          437 1041 rlineto
          240.99000549316406 hlineto
          436 -1041 rlineto
          -325 hlineto
          -232 585.0200042724609 -227 -585.0200042724609 rlineto
          endchar
        </CharString>
        <CharString name="asciitilde">
          140 631.9900054931641 281 -123 278.99000549316406 hstemhm
          189.99000549316406 1066 hintmask 01100000
          189.99000549316406 833.9900054931641 rmoveto
          144 212 callsubr
          rlineto
          -53 callgsubr
          43 64 callgsubr
          60 97.02000427246094 hhcurveto
          hintmask 10100000
          -7 callsubr
          18 -158 210 hhcurveto
          181 137.99000549316406 141 82 21.020004272460938 hvcurveto
          -127.02000427246094 162 rlineto
          -42 -40.97999572753906 -58.02000427246094 -62 -98 hhcurveto
          hintmask 01100000
          -145 -41 156 -210.99000549316406 hhcurveto
          -183 -140 -161 -74 -22 hvcurveto
          endchar
        </CharString>
        <CharString name="asterisk">
          106 583.9799957275391 1173.990005493164 hstem
          132.99000549316406 1145.990005493164 vstem
          606.9900054931641 904.9900054931641 rmoveto
          -29 -321 rlineto
          271.00999450683594 hlineto
          -37 323.00999450683594 -3 144 callgsubr
          217 callgsubr
          128 -2 13 rlinecurve
          123 -51 callsubr
          254 -188 137 251 -292 196 callgsubr
          -165 39.02000427246094 163 45 287 134 -127 -21 callgsubr
          287 callgsubr
          -192 -13.990005493164062 -12 -92 -105 -10.020004272460938 -9 rlinecurve
          44 165 27 315.97999572753906 rlineto
          -272 hlineto
          40 -320.97999572753906 2 -20 41.99000549316406 -128 2 123 callsubr
          rlinecurve
          -118 3 callgsubr
          -273 -46 callgsubr
          -123.99000549316406 -243 293.99000549316406 -131 17 219 callgsubr
          133 -27.009994506835938 12 -4 rlinecurve
          170 callgsubr
          -42 -289.00999450683594 -139 134 -244 260.02000427246094 193 116 127 -43 -163 rlineto
          endchar
        </CharString>
        <CharString name="at">
          939 -461 190 266.00999450683594 210.97999572753906 -210.97999572753906 257.97999572753906 608.0000152587891 218.99000549316406 271.99998474121094 190.99000549316406 hstemhm
          142.99000549316406 225.99000549316406 235.00999450683594 221 callgsubr
          377.00999450683594 233.17999267578125 372.82000732421875 220.99000549316406 hintmask 1101111110000000
          1262.979995727539 182.99000549316406 rmoveto
          147 callgsubr
          9.009994506835938 70 -50.99000549316406 134 hhcurveto
          296 317.99000549316406 251.97999572753906 550.0099945068359 483.99000549316406 -360 262 -475 -601 -511 -445.99000549316406 -669 -619.9900054931641 415 -269 482 286 157 77 65 101 callgsubr
          hvcurveto
          -46 84 callsubr
          rlineto
          -47.99000549316406 -86 -121 -70 287 callgsubr
          hhcurveto
          -332 -359 163.99000549316406 533.9900054931641 589 421.00999450683594 336 460 291.97999572753906 327 -127 -454 -365 -174 -200 -145 -53 -17 58 158 33 hvcurveto
          41 185 57.02000427246094 305 30.990005493164062 144 -197 -31 rcurveline
          35 -56 -94 20.009994506835938 112 callsubr
          hhcurveto
          -425.99000549316406 -181 -363.00999450683594 -274 -6 hvcurveto
          -299.99000549316406 -7 161 212 callsubr
          148 hhcurveto
          -7 callsubr
          215 callsubr
          -7 callgsubr
          84 callgsubr
          -65 callgsubr
          hvcurveto
          -5 callgsubr
          -23.990005493164062 0 -20 123 callgsubr
          -18 rrcurveto
          hintmask 1011111110000000
          -279.97999572753906 70 rmoveto
          -58 -40.02000427246094 68 139 1 hvcurveto
          203.02000427246094 2 130 198 161 hhcurveto
          66 51 -19 -28 24.990005493164062 hvcurveto
          -231.02000427246094 -29 -175.99000549316406 -330 -133 hhcurveto
          endchar
        </CharString>
        <CharString name="atilde">
          -86 callgsubr
          139 -24 callsubr
          84.99000549316406 381.99000549316406 241 callgsubr
          172 callsubr
          hintmask 00000000
          hintmask 11101001
          468.99000549316406 1432.990005493164 rmoveto
          hintmask 11110001
          -62 callgsubr
          19 -134 183 hhcurveto
          hintmask 11100101
          88 callsubr
          30.990005493164062 hvcurveto
          hintmask 11110001
          -127 84 callgsubr
          rlineto
          -46 -34 -62 -59.99000549316406 -71 hhcurveto
          hintmask 11101001
          256 callgsubr
          -7 252 callsubr
          -167 284 callsubr
          209 callsubr
          133 285 callgsubr
          61.99000549316406 56 66.00999450683594 hhcurveto
          hintmask 11100111
          161 -273 -107 callgsubr
        </CharString>
        <CharString name="b">
          201 callgsubr
          hstem
          187 callsubr
          vstem
          843.9799957275391 1155.990005493164 157 callgsubr
          -1596.990005493164 vlineto
          -23.020004272460938 28 266.02000427246094 -61.970001220703125 239 -80 callsubr
        </CharString>
        <CharString name="backslash">
          -444 -363 1962 hstem
          0 845.9799957275391 vstem
          290.97999572753906 1599 rmoveto
          -290.97999572753906 hlineto
          554.9900054931641 -1962 rlineto
          291 hlineto
          -555.0099945068359 1962 rlineto
          endchar
        </CharString>
        <CharString name="bar">
          93 callsubr
          -1965.990005493164 288.00999450683594 1965.990005493164 -288.00999450683594 vlineto
          endchar
        </CharString>
        <CharString name="braceleft">
          150 callgsubr
          327.97999572753906 312.99000549316406 vstem
          605 898.9900054931641 rmoveto
          22 28 13.990005493164062 36 46 vvcurveto
          541 247 187 vlineto
          11 -86 -131 13 -109 hhcurveto
          -154 -80 112 callsubr
          -197 hvcurveto
          -468.99000549316406 vlineto
          -85.02000427246094 -158 260 callsubr
          -100.99000549316406 -10 vhcurveto
          -202.02000427246094 vlineto
          100.99000549316406 -10 158 -54 -82.99000549316406 vvcurveto
          -469.00999450683594 vlineto
          -196.97999572753906 80 -84 154 109 131 11 24 86 vhcurveto
          174 -247 558.9700012207031 vlineto
          47 -12.990005493164062 36 -25 28 vhcurveto
          -44 52 -93 39 -45 callsubr
          27 100 callgsubr
          28 97.02000427246094 42 41 53 rrcurveto
          endchar
        </CharString>
        <CharString name="braceright">
          150 callgsubr
          350.97999572753906 312.99000549316406 vstem
          245 callsubr
          1017 rmoveto
          468.99000549316406 vlineto
          197 -80 78.00999450683594 -153.99000549316406 182 callgsubr
          -130.99000549316406 -13 -11 -86 vhcurveto
          -187 246.99000549316406 -541 vlineto
          -46 14 -36 22 -28 vhcurveto
          41 -53 -6 callsubr
          -42 79.02000427246094 -28 112 callsubr
          -27 -93 -39 260 callsubr
          -52 rrcurveto
          -25 -28 -13 -36 -47 vvcurveto
          -558.9700012207031 138 callgsubr
          -174 vlineto
          -24 86 -6 callgsubr
          -11 109.02000427246094 hhcurveto
          213 callsubr
          80 84 196.97999572753906 hvcurveto
          469.00999450683594 vlineto
          -65 callgsubr
          158 54 101 10 vhcurveto
          202.02000427246094 vlineto
          -101 10 -158 -53 callgsubr
          85.02000427246094 vvcurveto
          endchar
        </CharString>
        <CharString name="bracketleft">
          187 callgsubr
          128 320.97999572753906 vstem
          128 1485.990005493164 rmoveto
          -1418 vlineto
          -196.99000549316406 47.97999572753906 -86 154 161 102.00999450683594 14.990005493164062 13 -45 callgsubr
          vhcurveto
          174 vlineto
          -251 1 rlineto
          1554.979995727539 251 182 vlineto
          10 63 callgsubr
          -101 14.009994506835938 -162 hhcurveto
          -153 -48.99000549316406 -66.00999450683594 -197 hvcurveto
          endchar
        </CharString>
        <CharString name="bracketright">
          187 callgsubr
          357.99000549316406 321 vstem
          678.9900054931641 1485.990005493164 rmoveto
          197 -49 66.00999450683594 -152.99000549316406 -162.02000427246094 -100.99000549316406 123 callsubr
          -10 -13 callsubr
          vhcurveto
          -182 251 -1554.979995727539 vlineto
          -251 -1 rlineto
          -174 vlineto
          -13 107.00999450683594 216 callgsubr
          -31 callsubr
          161 hhcurveto
          213 callsubr
          48 86 196.99000549316406 hvcurveto
          1418 vlineto
          endchar
        </CharString>
        <CharString name="breve">
          -481 1285.979995727539 243.00999450683594 hstem
          28 227 vstem
          28 1687.979995727539 rmoveto
          -232 -3 135 -170 254 hhcurveto
          28 callsubr
          endchar
        </CharString>
        <CharString name="breve.cap">
          -481 1594.979995727539 230 hstem
          28 769 vstem
          28 1963.990005493164 rmoveto
          -222 -3 128 -147 261 hhcurveto
          248.02000427246094 136.99000549316406 147 222 -51 callgsubr
          hvcurveto
          -220.02000427246094 hlineto
          -47 219 callgsubr
          -19 -92 -137 180 callgsubr
          -5 hvcurveto
          82 callgsubr
          hlineto
          endchar
        </CharString>
        <CharString name="brokenbar">
          93 callsubr
          -807.0200042724609 288.00999450683594 807.0200042724609 -288.00999450683594 vlineto
          -1175 vmoveto
          -790.9900054931641 288.00999450683594 790.9900054931641 -288.00999450683594 vlineto
          endchar
        </CharString>
        <CharString name="bullet">
          -395 439.99000549316406 582 hstem
          160.99000549316406 589 vstem
          160.99000549316406 721 rmoveto
          -161.02000427246094 -1 121 -51 callsubr
          165 hhcurveto
          84 callsubr
          137 141.99000549316406 160 1 hvcurveto
          163 -116 117 -166 -165 213 callgsubr
          -140 -161 -1 vhcurveto
          endchar
        </CharString>
        <CharString name="c">
          -18 callsubr
          hstem
          -67 callgsubr
          239 callgsubr
          vstem
          245 callsubr
          1155.990005493164 rmoveto
          -98 callsubr
          55 callsubr
          endchar
        </CharString>
        <CharString name="cacute">
          -18 callsubr
          480.00001525878906 43 hstem
          -67 callgsubr
          239 callgsubr
          vstem
          476 1396 rmoveto
          173 165 callsubr
          -23 callsubr
          134 callsubr
          266 callgsubr
          138 callsubr
          189 -32 callsubr
          -68 callgsubr
          187.99000549316406 -240 rmoveto
          -98 callsubr
          55 callsubr
          endchar
        </CharString>
        <CharString name="caron">
          -476 1248.990005493164 483 hstem
          30.990005493164062 832 vstem
          206.99000549316406 1731.990005493164 rmoveto
          234 callsubr
          305 83 callsubr
          rlineto
          242 callgsubr
          hlineto
          304 -24 callgsubr
          rlineto
          endchar
        </CharString>
        <CharString name="caron.cap">
          -541 1557.990005493164 405.99000549316406 hstem
          -53 callgsubr
          798 vstem
          -53 callgsubr
          262 callgsubr
          281.99000549316406 -291 rlineto
          234 -14 callgsubr
          endchar
        </CharString>
        <CharString name="caronvertical">
          -856 985.9799957275391 736.9900054931641 hstem
          123.99000549316406 241 callgsubr
          vstem
          -45 callgsubr
          1026.990005493164 rmoveto
          157 -41 rlineto
          63 68 167 callgsubr
          132 callsubr
          181 callsubr
          -11 callsubr
          vhcurveto
          -254 3 callsubr
          -11 2 callsubr
          rlineto
          36.99000549316406 13 callgsubr
          8.009994506835938 -35 rcurveline
          endchar
        </CharString>
        <CharString name="ccaron">
          -18 callsubr
          hstem
          -67 callgsubr
          239 callgsubr
          vstem
          384 1739.979995727539 rmoveto
          -176 51 callgsubr
          304.99000549316406 146 callsubr
          rlineto
          223 hlineto
          304 369 -177 114 -239 -227 -239.97999572753906 227 rlineto
          279.97999572753906 -583.9900054931641 rmoveto
          -98 callsubr
          55 callsubr
          endchar
        </CharString>
        <CharString name="ccedilla">
          -258 49 callgsubr
          262 43 831.9799957275391 288.00999450683594 hstem
          -67 callgsubr
          239 callgsubr
          84.00999450683594 -21 callgsubr
          vstem
          994.9799957275391 99.97999572753906 rmoveto
          -44.99000549316406 209 rlineto
          -23 -48.99000549316406 -87 -18 -97.02000427246094 hhcurveto
          -144 -117 82 235 4 hvcurveto
          215 4.0099945068359375 132 68 118 hhcurveto
          110 69 -22 -25 44 hvcurveto
          42 278.02000427246094 rlineto
          55 callsubr
          -398.99000549316406 -180 -264 -333 -295 141 -229 301 -42.97999572753906 hvcurveto
          11 -73 callsubr
          7 -34 -1 -51.02000427246094 -21 callsubr
          1 70 -13 86 -27 53 106 18 95 40 46.97999572753906 -11 callsubr
          rrcurveto
          endchar
        </CharString>
        <CharString name="ccircumflex">
          -18 callsubr
          hstem
          -67 callgsubr
          239 callgsubr
          vstem
          286 callgsubr
          1362.979995727539 rmoveto
          176 -29 callsubr
          293 callsubr
          238.97999572753906 48 callgsubr
          -222.99000549316406 hlineto
          -305.00999450683594 5 callgsubr
          rlineto
          452 -206.99000549316406 rmoveto
          -98 callsubr
          55 callsubr
          endchar
        </CharString>
        <CharString name="cdotaccent">
          -18 callsubr
          123.00001525878906 397.97999572753906 75 callsubr
          239 callgsubr
          -53.97999572753906 145 callgsubr
          hintmask 00000000
          hintmask 11101000
          406 1471 rmoveto
          -112 87 -80 37 callsubr
          -111.99000549316406 vhcurveto
          257.97999572753906 -315 rmoveto
          hintmask 11110000
          -98 callsubr
          hintmask 11101000
          55 callsubr
          endchar
        </CharString>
        <CharString name="cedilla">
          -777 49 callgsubr
          hstem
          145 callsubr
          -21 callgsubr
          vstem
          52 -255 rmoveto
          244 callgsubr
          27 186 callsubr
          92 callgsubr
          -21 117 -46.02000427246094 38.970001220703125 -52 100 callsubr
          rcurveline
          -161 -4.0200042724609375 20.009994506835938 218 callsubr
          144 callgsubr
          197 callgsubr
          -51 callgsubr
          -80.02000427246094 rlinecurve
          -99 -1 -51 -51 -65 hhcurveto
          -31 -73 callsubr
          3 11 -17 hvcurveto
          endchar
        </CharString>
        <CharString name="cent">
          -106 -14 43 -43 221 callgsubr
          -272.97999572753906 43 829.9799957275391 287 -50.94999694824219 -102 callgsubr
          -30.960006713867188 -63 callsubr
          84 callgsubr
          375 42.5 185.49000549316406 -153.010009765625 185.50999450683594 hintmask 0000000000000000
          hintmask 0100011010000000
          1046 99.97999572753906 rmoveto
          hintmask 0101001010000000
          7 callsubr
          209 rlineto
          -23 -48.99000549316406 -87 -18 -96.99000549316406 hhcurveto
          -144.02000427246094 -117 82 235 100 callsubr
          hvcurveto
          215 4 131.99000549316406 68 118 hhcurveto
          110 69 -22 -25 44.02000427246094 hvcurveto
          41.99000549316406 278.02000427246094 218 callsubr
          23.979995727539062 -100 26.009994506835938 -129 6 rlinecurve
          5 222 rlineto
          -185 hlineto
          hintmask 0010101010000000
          -6 -232 rlineto
          -307 -52 -140 -240 -294.00999450683594 vvcurveto
          -287.99000549316406 134 -224 286 -51.97999572753906 vhcurveto
          hintmask 1000011100000000
          -5 -211 rlineto
          186 hlineto
          4 202 rlineto
          hintmask 1000011010000000
          128 197 callsubr
          122 46.97999572753906 55 57 rrcurveto
          endchar
        </CharString>
        <CharString name="circumflex">
          -412 1248.990005493164 484 hstem
          30.990005493164062 832 vstem
          30.990005493164062 1362.979995727539 rmoveto
          176 -29 callsubr
          293 callsubr
          293 callgsubr
          76 callgsubr
          95 callsubr
          -222.99000549316406 hlineto
          -305 5 callgsubr
          rlineto
          endchar
        </CharString>
        <CharString name="circumflex.cap">
          -415 1656 43 -41 43 hstemhm
          -53 callgsubr
          803 hintmask 00000000
          hintmask 10100000
          -53 callgsubr
          1655.990005493164 rmoveto
          hintmask 01100000
          177.99000549316406 51 callsubr
          223 193 224 -193 178 95 callgsubr
          hintmask 10100000
          168 callsubr
          endchar
        </CharString>
        <CharString name="colon">
          -637 177 callsubr
          692.9800109863281 160 callgsubr
          hintmask 01011000
          56 callsubr
          925 rmoveto
          hintmask 01101000
          23 callsubr
          hintmask 01011000
          272 callgsubr
          hintmask 10011000
          -736.0099945068359 vmoveto
          -56 callgsubr
          endchar
        </CharString>
        <CharString name="colonmonetary">
          178 -353.99000549316406 2169 hstemhm
          734.4700012207031 136.50999450683594 -13.509994506835938 137 hintmask 11000000
          630.9900054931641 23 rmoveto
          -354 93 -178.02000427246094 262.97999572753906 379 vvcurveto
          hintmask 10100000
          438 264.00999450683594 65 callgsubr
          367 193 callsubr
          vhcurveto
          20.009994506835938 299 rlineto
          116.97999572753906 hlineto
          -18.990005493164062 -282.00999450683594 rlineto
          3.0200042724609375 39 37 66 callgsubr
          39 hhcurveto
          22 hlineto
          19 277.00999450683594 rlineto
          117 hlineto
          -19 -285 114.02000427246094 -13 67.99000549316406 -28 59 -13 rlinecurve
          -52 -358.00999450683594 -23 21.020004272460938 -70 47 -118 12.990005493164062 rlinecurve
          -59 -890.9900054931641 121 5 128 47.99000549316406 49 46.02000427246094 rlinecurve
          -343 vlineto
          hintmask 11000000
          -64 -29.029998779296875 -107 -40.97999572753906 -149 -8 -22 -339.99000549316406 rcurveline
          -117 hlineto
          22 339.99000549316406 -47 3 -46 -46 callsubr
          -43 7 rlinecurve
          -23 -353 rlineto
          -117 hlineto
          25 147 callsubr
          rlineto
          194 1157 rmoveto
          -55 -830.0200042724609 39 -17 44 -12 51 219 callgsubr
          rlinecurve
          59 889 -49 -3.0200042724609375 -46 -7 -42.99000549316406 -12.990005493164062 rlinecurve
          -121 -54 rmoveto
          -13 callsubr
          -69 -63 51 callsubr
          170 callgsubr
          vvcurveto
          -156 38.99000549316406 142 callgsubr
          84.00999450683594 -82.99000549316406 vhcurveto
          47 702 rlineto
          endchar
        </CharString>
        <CharString name="comma">
          -606 -511.99000549316406 43 hstem
          254.99000549316406 326 vstem
          174 -381.99000549316406 rmoveto
          -77 callsubr
          vlineto
          132 -104 rlineto
          152 58 123 291 callsubr
          -53 169 51 callsubr
          43 vhcurveto
          -262.97999572753906 148 callgsubr
          -42 -100.99000549316406 -39 -29 vhcurveto
          endchar
        </CharString>
        <CharString name="copyright">
          785 -36 callgsubr
          129 258 102 callgsubr
          566.0099945068359 261 callsubr
          257.00999450683594 126.00999450683594 hstem
          174.97999572753906 142 282.010009765625 198 callsubr
          923.0200042724609 142.99000549316406 229 callsubr
          -384 -389.02000427246094 -485.99000549316406 -487 384 228 callgsubr
          385 392.00999450683594 487 485.99000549316406 -385 389.02000427246094 -485.99000549316406 hvcurveto
          -1625 vmoveto
          -419 -309 336 414 413 309 336 419 419 309 -336 -413 -414 -309 -336 -419 hvcurveto
          -11 callsubr
          1241.990005493164 rmoveto
          -325 243 callgsubr
          -216.99000549316406 -284 2 hvcurveto
          -259.00999450683594 123 callgsubr
          176 82 callgsubr
          274 hhcurveto
          133 124 50 53 60.99000549316406 hvcurveto
          260 callsubr
          173 rlineto
          -28 -39 -57 callsubr
          -35 63 callgsubr
          hhcurveto
          -145 -106 87 221 66 callgsubr
          hvcurveto
          155 1 102.02000427246094 103.02000427246094 145 hhcurveto
          81 122 callsubr
          -25 -30 42 hvcurveto
          37 205 rlineto
          23 -41 -100 168 callgsubr
          -113 hhcurveto
          endchar
        </CharString>
        <CharString name="currency">
          259 211 callgsubr
          253.99000549316406 412.99998474121094 256 hstem
          324.99000549316406 253.99000549316406 404.99998474121094 255.00999450683594 vstem
          1239 773 rmoveto
          64 callsubr
          -28.020004272460938 167 callgsubr
          -47 73 vhcurveto
          207 207.99000549316406 -150 161.02000427246094 -217 -219 rlineto
          37 -66.00999450683594 142 callsubr
          218 callgsubr
          -80.02000427246094 hhcurveto
          -20 callsubr
          -75 258 callgsubr
          -36 -65 hvcurveto
          -199 205.99000549316406 212 callsubr
          170 callgsubr
          186.99000549316406 -193 rlineto
          -47.99000549316406 -74 -29 -88 -97 vvcurveto
          -97.02000427246094 29 3 callsubr
          -11 callsubr
          -74.02000427246094 vhcurveto
          -189.99000549316406 -193.99000549316406 150 -157 200 204.99000549316406 rlineto
          -35 65 75 258 callgsubr
          -63 callgsubr
          hhcurveto
          79.02000427246094 75 289 callgsubr
          36 65 hvcurveto
          203 -208 147.99000549316406 158 -189.99000549316406 196 rlineto
          49 217 callsubr
          29 88.99000549316406 97.02000427246094 vvcurveto
          -456 -207 rmoveto
          -115 -89 95 112 63 callsubr
          89 94 115 116 -67 callgsubr
          88 callgsubr
          -111 -84.99000549316406 146 callgsubr
          -116 hvcurveto
          endchar
        </CharString>
        <CharString name="d">
          201 callsubr
          70 callgsubr
          vstem
          850.9799957275391 1661.990005493164 rmoveto
          -412 vlineto
          -92 callsubr
          1677.979995727539 5 callgsubr
          hlineto
          -378 -1113 -93 callsubr
        </CharString>
        <CharString name="dagger">
          -272 1040.990005493164 246.49000549316406 hstemhm
          370.47999572753906 292.52000427246094 -284.50999450683594 277.5 hintmask 10100000
          -35 callgsubr
          1041 rmoveto
          17 -841.0099945068359 rlineto
          262 hlineto
          14 841.0099945068359 rlineto
          279 246.99000549316406 hlineto
          hintmask 11000000
          -279 -1 rlineto
          371.02000427246094 -292 vlineto
          -1 -371.02000427246094 -277 1 -1 138 callgsubr
          rlineto
          hintmask 10100000
          278 hlineto
          endchar
        </CharString>
        <CharString name="daggerdbl">
          -267 391.97999572753906 247.52000427246094 401.49000549316406 246.99000549316406 hstemhm
          -35 callgsubr
          292 -283.010009765625 272.50999450683594 hintmask 11010000
          -35 callgsubr
          391.99000549316406 rmoveto
          18 -747.9900054931641 rlineto
          143 callgsubr
          hlineto
          21.020004272460938 747.9900054931641 rlineto
          284 247 hlineto
          hintmask 11100000
          -284 1 rlineto
          401 285 246.99000549316406 -285 vlineto
          66 callgsubr
          4 callsubr
          rlineto
          -292.97999572753906 hlineto
          -1 146 callsubr
          rlineto
          -277 hlineto
          -1 138 callgsubr
          rlineto
          278 -401 hlineto
          -278 -1 rlineto
          -247 vlineto
          hintmask 11010000
          278 hlineto
          endchar
        </CharString>
        <CharString name="dcaron">
          401 48 callsubr
          70 callgsubr
          235.99000549316406 288 callgsubr
          vstem
          1660.990005493164 1722.979995727539 rmoveto
          -253.99000549316406 3 callsubr
          -11 2 callsubr
          rlineto
          36.99000549316406 13 callgsubr
          8 -35 rcurveline
          159 callgsubr
          -810 -472.99000549316406 rmoveto
          -92 callsubr
          1677.979995727539 5 callgsubr
          -412 hlineto
          -378 -701.0099945068359 -93 callsubr
        </CharString>
        <CharString name="dcroat">
          201 callsubr
          135.989990234375 200 70 callgsubr
          vstem
          1349 1491.990005493164 rmoveto
          -128 170 5 callgsubr
          -170 -216.99000549316406 -200 216.99000549316406 217 callgsubr
          hlineto
          -92 callsubr
          1307.9700012207031 128 200 hlineto
          -876.0099945068359 -943 -93 callsubr
        </CharString>
        <CharString name="degree">
          -329 907.9799957275391 199 341.010009765625 198.97999572753906 hstem
          111.97999572753906 212 329 212 vstem
          488 1646.979995727539 rmoveto
          -216 -160 -158.99000549316406 -210 -207 164 -163 212 221 156 159 211 206.99000549316406 -160 162 -216.99000549316406 hvcurveto
          -540 vmoveto
          -87 -77 69 102.00999450683594 104 112 callgsubr
          66 91.02000427246094 88 76.97999572753906 -68.02000427246094 215 callgsubr
          -103 -73.99000549316406 -68.02000427246094 -91 hvcurveto
          endchar
        </CharString>
        <CharString name="dieresis">
          -272 1280.979995727539 394.00999450683594 hstemhm
          61.99000549316406 392.99000549316406 hintmask 00000000
          hintmask 11000000
          61.99000549316406 1471 rmoveto
          97 callgsubr
          292 callgsubr
          94 253 callsubr
          51 callgsubr
          -93 -93 -111 vhcurveto
          518 hmoveto
          97 callgsubr
          215 callsubr
          87.99000549316406 231 callsubr
          -114 -92 -93 -111 vhcurveto
          endchar
        </CharString>
        <CharString name="dieresis.cap">
          -268 1581.990005493164 181 callgsubr
          136 callgsubr
          236 callgsubr
          hintmask 00000000
          hintmask 11100000
          136 callgsubr
          1765.990005493164 rmoveto
          -109 77 -75 2 callgsubr
          116 88.99000549316406 -49 callsubr
          -71.99000549316406 9 callsubr
          51 callsubr
          263 callgsubr
          2 callgsubr
          116 88.99000549316406 -49 callsubr
          -70.99000549316406 9 callsubr
          -115.02000427246094 281 callgsubr
          endchar
        </CharString>
        <CharString name="divide">
          111 -6 callsubr
          431 111 268.97999572753906 3 callgsubr
          431.97999572753906 hstemhm
          516.9900054931641 145 callgsubr
          hintmask 00000000
          hintmask 11110000
          518.9799957275391 1236.990005493164 rmoveto
          -119.00999450683594 83 3 callsubr
          123 125.99000549316406 95.00999450683594 105 120 1 vhcurveto
          119 -77 87.99000549316406 -126 -22 callsubr
          -98 -105 245 callgsubr
          -1 vhcurveto
          -328.99000549316406 -329.00999450683594 rmoveto
          -268.97999572753906 1036 268.97999572753906 -1036 vlineto
          327 -603 rmoveto
          245 callgsubr
          -65 callgsubr
          -89 122 127.02000427246094 64 callsubr
          105 -62 callgsubr
          vhcurveto
          -38 callsubr
          1 112 callsubr
          88 -124.99000549316406 hhcurveto
          -126 -99 -104 -119.00999450683594 hvcurveto
          endchar
        </CharString>
        <CharString name="dollar">
          103 -224.99000549316406 501.97999572753906 -289.989990234375 43 -38.99000549316406 43 1227.9800109863281 274 -274 500.97999572753906 -273.94000244140625 -102 callgsubr
          -34.95001220703125 -63 callsubr
          261 callsubr
          52 callgsubr
          -9.990005493164062 205 -142.489990234375 204 43.5 380.97999572753906 hintmask 0000000000000000
          hintmask 0011000101100000
          1251.979995727539 435 rmoveto
          239 -156 116 -262 117.99000549316406 vhcurveto
          -184 84 -57 callsubr
          50 92.02000427246094 vvcurveto
          76.99000549316406 66 51.02000427246094 144 133 143 -49 -48 60.99000549316406 vhcurveto
          59 286 rlineto
          hintmask 0010001001000000
          -48.99000549316406 28 142 callgsubr
          47 -185 197 callsubr
          rrcurveto
          hintmask 0010100001000000
          9.020004272460938 226.97999572753906 rlineto
          -204 hlineto
          hintmask 0010010001000000
          -9.009994506835938 -232.97999572753906 rlineto
          hintmask 1000010101100000
          -251 -34.02000427246094 -163 147 callgsubr
          -238 vvcurveto
          -245 163 -135 194 -92 vhcurveto
          227 -108 82 -38 -96.99000549316406 vvcurveto
          -36 callsubr
          -62 -39 -144 vhcurveto
          170 callgsubr
          -1 -168 56 -74.02000427246094 42 rrcurveto
          hintmask 0010001101000000
          -47 -296 rlineto
          hintmask 0010001010000000
          47 -29 138.02000427246094 -42 163.99000549316406 -15.970001220703125 rrcurveto
          hintmask 1000001010000000
          82 callsubr
          -216 rlineto
          205 hlineto
          hintmask 0100001010000000
          -13 callgsubr
          286 callgsubr
          rlineto
          hintmask 0011000101100000
          312.00999450683594 21.990005493164062 169.99000549316406 171.99000549316406 254.02000427246094 vvcurveto
          endchar
        </CharString>
        <CharString name="dong">
          85 196.99000549316406 93.97999572753906 957.0099945068359 105 341.010009765625 43 hstem
          514.9900054931641 305.99000549316406 vstem
          820.9799957275391 1352.990005493164 rmoveto
          -325 168 325 173 4 callsubr
          -173 167 -168 -167 -1062.020004272461 -311.00999450683594 hlineto
          -23 0 32.02000427246094 8 hvcurveto
          70 vlineto
          -41 -44 -75 216 callsubr
          -181 hhcurveto
          -221 -187 142 303 219 callsubr
          204 189 319 193 callsubr
          47.99000549316406 -7 82 callsubr
          32 hvcurveto
          -3 120 rlineto
          -305.99000549316406 -611 rmoveto
          -141 61 -60.99000549316406 82.97999572753906 80 55 28 17 27 vhcurveto
          398.99000549316406 vlineto
          12 -31 callsubr
          -37 17 -81 hhcurveto
          -123 -49.99000549316406 -99.99000549316406 -171 hvcurveto
          734 -741.9900054931641 rmoveto
          -1105 197 1105 -197 hlineto
          endchar
        </CharString>
        <CharString name="dotaccent">
          -773 1278.990005493164 -31 callgsubr
          hstem
          136 callgsubr
          427 vstem
          136 callgsubr
          1471 rmoveto
          -1 callsubr
          -68 callsubr
          -51 callsubr
          178 callsubr
          endchar
        </CharString>
        <CharString name="dotaccent.cap">
          -773 1595.979995727539 367 hstem
          121 callgsubr
          135 callgsubr
          vstem
          121 callgsubr
          204 callsubr
          74 205 callsubr
          94 callgsubr
          endchar
        </CharString>
        <CharString name="dotlessi">
          250 callsubr
          -7 callsubr
          269 callgsubr
          -7 callsubr
          1140 -76 callsubr
        </CharString>
        <CharString name="e">
          -79 callgsubr
          -28 callsubr
          1135.979995727539 692.9799957275391 -107 callsubr
        </CharString>
        <CharString name="eacute">
          -79 callgsubr
          480 43 -28 callsubr
          1082.979995727539 12 callsubr
          44 callsubr
          53 -943 -107 callsubr
        </CharString>
        <CharString name="ebreve">
          -79 callgsubr
          129.989990234375 243.00999450683594 -28 callsubr
          653.9900054931641 1285.979995727539 rmoveto
          241 145 170 232 -2 hvcurveto
          82 callgsubr
          hlineto
          -47.99000549316406 -8 123 callsubr
          -111 -138 hhcurveto
          -22 callgsubr
          -11 111 47.99000549316406 -5.0200042724609375 hvcurveto
          -227 hlineto
          -232 -70 callgsubr
          135 -170 254 hhcurveto
          482 -593 -107 callsubr
        </CharString>
        <CharString name="ecaron">
          -79 callgsubr
          -28 callsubr
          761 6 callgsubr
          305 146 callsubr
          rlineto
          223 hlineto
          374.99000549316406 -564 -107 callsubr
        </CharString>
        <CharString name="ecircumflex">
          -79 callgsubr
          -28 callsubr
          17 callgsubr
          482 -783.0099945068359 -107 callsubr
        </CharString>
        <CharString name="edieresis">
          -79 callgsubr
          124.989990234375 394.00999450683594 75 callsubr
          373 -261 209 callgsubr
          391.97999572753906 -313.99000549316406 137 callgsubr
          hintmask 00000000
          hintmask 11110110
          385.99000549316406 199 callsubr
          51 callgsubr
          -93 -93 -111 97 callgsubr
          hvcurveto
          518 hmoveto
          115 88 231 callsubr
          -114 -92 -93 -111 97 callgsubr
          hvcurveto
          hintmask 11101001
          232 -588 -107 callsubr
        </CharString>
        <CharString name="edotaccent">
          -79 callgsubr
          123 397.97999572753906 75 callsubr
          373 -26.010009765625 427 -66 137 callgsubr
          hintmask 00000000
          hintmask 11110100
          637.9900054931641 1279 rmoveto
          -68 callsubr
          -120 65 callsubr
          223 callgsubr
          hintmask 11101010
          497.99000549316406 -586.0200042724609 -107 callsubr
        </CharString>
        <CharString name="egrave">
          -79 callgsubr
          480 43 -28 callsubr
          616 208 callgsubr
          -104.02000427246094 94 -155 212 66 callsubr
          139 rlinecurve
          -244.02000427246094 -189 70 -156 256 -212.99000549316406 92.02000427246094 7 callsubr
          rlinecurve
          519.9900054931641 -529 -107 callsubr
        </CharString>
        <CharString name="eight">
          96 -97 callsubr
          242.97000122070312 1113 225 hstemhm
          117.99000549316406 170 callsubr
          -299.99000549316406 137 callgsubr
          391.00999450683594 324.99000549316406 -305.99000549316406 373.97999572753906 hintmask 00000000
          hintmask 11100100
          1292.979995727539 424.97999572753906 rmoveto
          -51 callgsubr
          194 -150.02000427246094 2 callgsubr
          -169 92 rrcurveto
          hintmask 11011000
          180.02000427246094 86 112 callgsubr
          283 callsubr
          142 vvcurveto
          209 -183 154 -343 -344 -188.99000549316406 -180.02000427246094 -221.99000549316406 -188 100 -117 127 -87 vhcurveto
          hintmask 11101000
          -200 -95.00999450683594 -75 147 callgsubr
          -142 vvcurveto
          -251.99000549316406 225 -160.99000549316406 372.99000549316406 vhcurveto
          hintmask 11100100
          332 248 161.97000122070312 279 -3 hvcurveto
          hintmask 11011000
          -588.9799957275391 915 rmoveto
          196 callgsubr
          71 -64 -89.00999450683594 hvcurveto
          -46 callsubr
          -104 260 callsubr
          -92 -13 callsubr
          -52 rrcurveto
          -135.99000549316406 71 -13 callsubr
          112 callgsubr
          111 vvcurveto
          77 75 69 120.02000427246094 vhcurveto
          hintmask 11100100
          -13 callgsubr
          -1113.009994506836 rmoveto
          -175 -71 167 callgsubr
          100.99000549316406 112 62 69 91 52 hvcurveto
          160 142 callsubr
          140 -64 -119 vvcurveto
          -99 -94 -61 -11 callgsubr
          vhcurveto
          endchar
        </CharString>
        <CharString name="ellipsis">
          688 -22 437.97999572753906 hstemhm
          110 callgsubr
          235.00999450683594 427 hintmask 00000000
          hintmask 11100000
          56 callsubr
          -46 callgsubr
          rmoveto
          -56 callgsubr
          663 hmoveto
          -51 callsubr
          1 -65 callgsubr
          77 callgsubr
          123 hhcurveto
          126.02000427246094 64 callsubr
          -45 callgsubr
          121 -5 callgsubr
          hvcurveto
          120 -78 90 -125.00999450683594 -126 280 callsubr
          663 hmoveto
          -51 callsubr
          84 77 callgsubr
          122 126 101 callgsubr
          -45 callgsubr
          121 -5 callgsubr
          vhcurveto
          120 -78 90 -125.00999450683594 -127 -98 -107 -120 1 vhcurveto
          endchar
        </CharString>
        <CharString name="emacron">
          -79 callgsubr
          247.989990234375 8 callsubr
          75 callsubr
          373 -114.010009765625 619 -170 137 callgsubr
          hintmask 00000000
          hintmask 11110100
          962.9900054931641 1641.979995727539 rmoveto
          -619.0099945068359 -238 619.0099945068359 238 hlineto
          hintmask 11111010
          -78 callsubr
          -949 -107 callsubr
        </CharString>
        <CharString name="emdash">
          1116 625.9900054931641 277.99000549316406 hstem
          65 callgsubr
          1926 vstem
          65 callgsubr
          903.9900054931641 rmoveto
          -278 1926 278 -1926 vlineto
          endchar
        </CharString>
        <CharString name="endash">
          402 625.9900054931641 277.99000549316406 hstem
          65 callgsubr
          1212 vstem
          65 callgsubr
          903.9900054931641 rmoveto
          -278 1212 278 -1212 vlineto
          endchar
        </CharString>
        <CharString name="eng">
          76 -507 235 272 43 821.9900054931641 292.97999572753906 -59.94000244140625 40.96000671386719 268 callsubr
          375 319 375 hintmask 00000000
          hintmask 11011100
          -19 callgsubr
          1139 rmoveto
          -1139 375.00999450683594 vlineto
          hintmask 11101100
          785.9799957275391 vlineto
          55 55 87 23 46 1 rrcurveto
          100.99000549316406 66 callgsubr
          30 -51 -165.99000549316406 vvcurveto
          -676.9799957275391 vlineto
          -209 -35 -36 3 callsubr
          -34.02000427246094 -55.99000549316406 -13 callgsubr
          8 -21 vhcurveto
          -230.99000549316406 vlineto
          -12 -11 callsubr
          74 -8 105 hhcurveto
          234 148 159 330 hvcurveto
          735.9900054931641 vlineto
          -1 334.00999450683594 -120 111 -238.02000427246094 -5.0200042724609375 213 callgsubr
          -70 callgsubr
          -145 112 callsubr
          -72 -58.99000549316406 rrcurveto
          hintmask 11011100
          -9 121 rlineto
          -343.02000427246094 hlineto
          endchar
        </CharString>
        <CharString name="eogonek">
          -85 -3 callsubr
          456.989990234375 261.97999572753906 236.99000549316406 185.00999450683594 249.00001525878906 239 75 callsubr
          373 92 297 -54.010009765625 137 callgsubr
          hintmask 01111101
          1135.979995727539 692.9799957275391 rmoveto
          366 -70 callgsubr
          -233 97.02000427246094 -243 hhcurveto
          -363 -209 -249 -332 5 callgsubr
          200 -220.97000122070312 367.99000549316406 hvcurveto
          hintmask 01111110
          25.009994506835938 24 1 66 callgsubr
          24 hvcurveto
          -98 -63 -83 215 callgsubr
          5 -22 callsubr
          rrcurveto
          -130.99000549316406 -46 callsubr
          132 -81 146 hhcurveto
          104 86 24 -23 callsubr
          68 hvcurveto
          hintmask 10111110
          170 vlineto
          -12 -37.99000549316406 -37 -8 -34 hhcurveto
          -72 -58 288 callsubr
          65 -70 callgsubr
          hvcurveto
          -2 99.99000549316406 71 79.00999450683594 91 79.99000549316406 259 callsubr
          17 33 144 callgsubr
          23 19 -57 197 rcurveline
          -30 -55 -141 -28 -110 hhcurveto
          -165.99000549316406 -102.00999450683594 67.00999450683594 169.97999572753906 -17 hvcurveto
          hintmask 01111101
          669 hlineto
          7 49 5 78.00999450683594 75 callgsubr
          -343 -24.990005493164062 rmoveto
          -335 56 callgsubr
          66.99000549316406 60 105 hhcurveto
          113 40 -83 -165.99000549316406 -9.009994506835938 hvcurveto
          endchar
        </CharString>
        <CharString name="equal">
          107 callsubr
          143 callgsubr
          1154.990005493164 rmoveto
          -251 924 251 -924 vlineto
          -508.00999450683594 vmoveto
          -251.99000549316406 924 211 callsubr
          -924 vlineto
          endchar
        </CharString>
        <CharString name="estimated">
          75 -97 callsubr
          -19 callgsubr
          464.99000549316406 156.00999450683594 424.99000549316406 163 hstem
          107.99000549316406 341.99000549316406 498.99998474121094 324.00999450683594 vstem
          1262 611.9799957275391 rmoveto
          11 51.02000427246094 0 -65 callgsubr
          167 callgsubr
          vvcurveto
          -11 328.99000549316406 -232.02000427246094 200 -295 -5.0200042724609375 rrcurveto
          -426 219 callgsubr
          -200.99000549316406 -286 -392 vvcurveto
          -430 229 -256.97999572753906 397.99000549316406 194 182.99000549316406 69.97999572753906 61 256 callsubr
          vhcurveto
          -70 151 rlineto
          -55 -73.00999450683594 -140 -64 -164.99000549316406 hhcurveto
          -118 -104 26.009994506835938 69 -77 hvcurveto
          -35 callgsubr
          812.0099945068359 vlineto
          -313.02000427246094 523 rmoveto
          -366.97999572753906 -499 327.99000549316406 vlineto
          68 71 93 29 107 hhcurveto
          104 112 callgsubr
          -22 -36 51 hvcurveto
          endchar
        </CharString>
        <CharString name="eth">
          15 122 callgsubr
          256.97999572753906 681.0000152587891 8 callsubr
          hstem
          -36 callgsubr
          390 400.989990234375 379 vstem
          735.9900054931641 1606.979995727539 rmoveto
          57 71 63 84.00999450683594 0 vvcurveto
          -167 115 rlineto
          0 -69 -98 -57 -77 vhcurveto
          -36 callsubr
          49 -76 23.990005493164062 -51 callsubr
          34.02000427246094 -60 -192 rcurveline
          217 callsubr
          -22.020004272460938 70.99000549316406 -35.99000549316406 62 182 callsubr
          -125.00999450683594 170 callgsubr
          rcurveline
          164 51 callsubr
          120 161.02000427246094 239 callsubr
          -81 -36 callgsubr
          -102.00999450683594 44 -120 rlinecurve
          -5 callsubr
          -49 -65 19 -83 hhcurveto
          -341 -192 -257 -342 -342 225 -234.97999572753906 354.02000427246094 315.97999572753906 275.00999450683594 261 callsubr
          487 373 -199 369.00999450683594 -319 199.99000549316406 hvcurveto
          -69 -1376.990005493164 rmoveto
          -112 -81 93 102 callgsubr
          248 79 127 125.00999450683594 88 75 -44.02000427246094 -46 30 hvcurveto
          4 -51 0 -122 -56 vvcurveto
          -252 -98 -110 -110 vhcurveto
          endchar
        </CharString>
        <CharString name="exclam">
          -637 177 callsubr
          hstemhm
          159.49000549316406 360.47999572753906 hintmask 01100000
          133 1780 rmoveto
          81 callsubr
          hintmask 10100000
          -13 275 callgsubr
          1 -65 callgsubr
          77 callgsubr
          122 hhcurveto
          127.02000427246094 64 callsubr
          -45 callgsubr
          121 120 -45 callsubr
          90 235 callgsubr
          -99 -107 -120 1 hvcurveto
          endchar
        </CharString>
        <CharString name="exclamdbl">
          8 177 callsubr
          hstemhm
          155.47999572753906 360.47999572753906 293.53001403808594 360.47999572753906 hintmask 01110000
          128.97999572753906 1780 rmoveto
          81 callsubr
          654.0099945068359 hmoveto
          81 callsubr
          hintmask 10110000
          -667 275 callgsubr
          123 callgsubr
          176 callgsubr
          -78 90 -126 171 callsubr
          -99 -107 -120 1 hvcurveto
          653.9900054931641 hmoveto
          -51 callsubr
          1 176 callgsubr
          112 callsubr
          90 171 callsubr
          -22 callsubr
          -99 -107 -120 1 hvcurveto
          endchar
        </CharString>
        <CharString name="exclamdown">
          -637 -435.99000549316406 1801.990005493164 -438.02000427246094 438 hstemhm
          113 callsubr
          428.00999450683594 -400.02000427246094 360.50999450683594 hintmask 00000000
          hintmask 01100000
          541 1154.990005493164 rmoveto
          56 callsubr
          -1 -83 91.02000427246094 -122 hhcurveto
          -127 -95 -13 callsubr
          -121 -120 78.00999450683594 -36 callsubr
          125.99000549316406 126 99 107.00999450683594 120 -5 callgsubr
          hvcurveto
          hintmask 10010000
          -13 -1590.990005493164 rmoveto
          -53 1189.990005493164 rlineto
          -314 hlineto
          -40 -1189.990005493164 rlineto
          407 hlineto
          endchar
        </CharString>
        <CharString name="f">
          -425 -43 callsubr
          291.99000549316406 252 hstem
          207 callsubr
          vstem
          185 callgsubr
          896.9799957275391 rmoveto
          -101 callgsubr
          endchar
        </CharString>
        <CharString name="f_f">
          456 -43 callsubr
          291.99000549316406 252 hstem
          207 callsubr
          509.02000427246094 269 callgsubr
          185 callgsubr
          896.9799957275391 rmoveto
          -101 callgsubr
          881.0099945068359 hmoveto
          -896.9799957275391 372 896.9799957275391 247 243.02000427246094 -247 125 callsubr
          50 43 callgsubr
          25 -32 callgsubr
          -73 callsubr
          112 callsubr
          17 -116 hhcurveto
          -209 -233 -99 -328 hvcurveto
          -116.99000549316406 vlineto
          -22 callgsubr
          -27.009994506835938 rlineto
          -216 142.99000549316406 vlineto
          endchar
        </CharString>
        <CharString name="f_f_i">
          -96 callsubr
        </CharString>
        <CharString name="f_f_i_trk">
          1146 -43 callsubr
          139.00001525878906 -31 callgsubr
          -244.99000549316406 252 hstemhm
          207 callsubr
          509.02000427246094 -74 callsubr
          428.99998474121094 427 -410 -74 callsubr
          hintmask 11011101
          185 callgsubr
          896.9799957275391 rmoveto
          -101 callgsubr
          881.0099945068359 hmoveto
          -896.9799957275391 372 896.9799957275391 247 243.02000427246094 -247 125 callsubr
          50 43 callgsubr
          25 -32 callgsubr
          -73 callsubr
          112 callsubr
          17 -116 hhcurveto
          -209 -233 -99 -328 hvcurveto
          -116.99000549316406 vlineto
          -22 callgsubr
          -27.009994506835938 rlineto
          -216 142.99000549316406 vlineto
          hintmask 11101110
          800.9900054931641 574.0200042724609 rmoveto
          -1 callsubr
          -68 callsubr
          -120 178 callsubr
          hintmask 11011101
          17 -331 -76 callsubr
        </CharString>
        <CharString name="f_f_l">
          1153 -43 callsubr
          291.99000549316406 252 130 callsubr
          384.99000549316406 -74 callsubr
          508.99998474121094 -52 callgsubr
          880.9900054931641 hmoveto
          -896.9799957275391 372 896.9799957275391 247 243.02000427246094 -247 125 callsubr
          258 callsubr
          43 callgsubr
          24.990005493164062 -32 callgsubr
          -73 callsubr
          -78 17 -116 hhcurveto
          -209 -233 -99 -328 hvcurveto
          -116.99000549316406 vlineto
          -22 callgsubr
          -27.009994506835938 rlineto
          -216 142.99000549316406 vlineto
          -1637.009994506836 765.0099945068359 -58 callsubr
          endchar
        </CharString>
        <CharString name="f_i_trk">
          265 -26 callgsubr
          207 callsubr
          410.02000427246094 427 -391 -74 callsubr
          hintmask 11011010
          185 callgsubr
          896.9799957275391 rmoveto
          -101 callgsubr
          hintmask 11101100
          782.0099945068359 573.0099945068359 rmoveto
          114 callsubr
          119 121 100 95 63 callsubr
          -59 callsubr
          142 callgsubr
          238 callsubr
          0 callgsubr
          vhcurveto
          hintmask 11011010
          36 -330 -76 callsubr
        </CharString>
        <CharString name="ffi_dflt">
          -96 callsubr
        </CharString>
        <CharString name="fi">
          265 -26 callgsubr
          169 callsubr
          -2 callgsubr
          381.00999450683594 -74 callsubr
          hintmask 11010110
          -94 callsubr
          hintmask 11101010
          -789.0099945068359 573.0099945068359 -93 callgsubr
          hintmask 11010110
          36 -330 -76 callsubr
        </CharString>
        <CharString name="fi_trk">
          265 -26 callgsubr
          169 callsubr
          -2 callgsubr
          381.00999450683594 -74 callsubr
          hintmask 11010110
          -94 callsubr
          hintmask 11101010
          -789.0099945068359 573.0099945068359 -93 callgsubr
          hintmask 11010110
          36 -330 -76 callsubr
        </CharString>
        <CharString name="five">
          14 -364.99000549316406 265.99000549316406 518.9799957275391 264 267 300.99000549316406 hstem
          798.9799957275391 380 vstem
          171.99000549316406 -351 rmoveto
          -10 43 70.99000549316406 76 callsubr
          35 hhcurveto
          528.0200042724609 330 240 callgsubr
          362 183 callsubr
          -156 165 -289.02000427246094 -20 callsubr
          -87 123 callsubr
          -73 callsubr
          195 callsubr
          hvcurveto
          31.009994506835938 307 rlineto
          587 hlineto
          32 301 rlineto
          -885 hlineto
          -63 -862.9900054931641 121 callgsubr
          -34.02000427246094 rlineto
          32.02000427246094 92 callgsubr
          111 257 callsubr
          122 callsubr
          hhcurveto
          180 -1 76 -64 171 callsubr
          vvcurveto
          -190 -197 -137.99000549316406 -348 -27.020004272460938 -73 callsubr
          1 1 -28 vhcurveto
          -1 -254.02000427246094 rlineto
          endchar
        </CharString>
        <CharString name="fl">
          272 -43 callsubr
          291.99000549316406 252 130 callsubr
          384.99000549316406 -52 callgsubr
          -756.0200042724609 765.0099945068359 -58 callsubr
          endchar
        </CharString>
</ttFont>
